<svg width="10" height="15" viewBox="0 0 10 15" fill="none" xmlns="http://www.w3.org/2000/svg">
<path d="M3.21431 0C2.91742 0 2.65148 0.188143 2.54633 0.472574L2.38234 0.916192C2.03078 0.880208 1.70688 0.844292 1.44468 0.814133C1.24867 0.791588 1.08755 0.772307 0.975629 0.758687L0.846526 0.742814L0.802678 0.737323C0.41119 0.687667 0.0539686 0.972447 0.00548871 1.37349C-0.0429918 1.77454 0.235075 2.13991 0.626568 2.18957L0.674275 2.19555L0.807115 2.21188C0.921646 2.22582 1.08584 2.24547 1.28528 2.26841C1.68382 2.31425 2.22474 2.37343 2.79226 2.42648C3.5578 2.49806 4.39695 2.56097 5 2.56097C5.60305 2.56097 6.4422 2.49806 7.20774 2.42648C7.77527 2.37343 8.31618 2.31425 8.71472 2.26841C8.91417 2.24547 9.07836 2.22582 9.19289 2.21188L9.32573 2.19555L9.37334 2.18959C9.76483 2.13992 10.043 1.77454 9.99451 1.37349C9.94603 0.972447 9.58937 0.687596 9.19788 0.737252L9.15348 0.742814L9.02437 0.758687C8.91245 0.772307 8.75133 0.791588 8.55532 0.814133C8.29312 0.844292 7.96922 0.880208 7.61766 0.916192L7.45367 0.472574C7.34853 0.188143 7.08259 0 6.78569 0H3.21431Z" fill="#DA400D"/>
<path d="M4.28573 7.31707C4.28573 6.91296 3.96593 6.58536 3.57145 6.58536C3.17697 6.58536 2.85718 6.91296 2.85718 7.31707V10.9756C2.85718 11.3797 3.17697 11.7073 3.57145 11.7073C3.96593 11.7073 4.28573 11.3797 4.28573 10.9756V7.31707Z" fill="#DA400D"/>
<path d="M6.42855 6.58536C6.82304 6.58536 7.14283 6.91296 7.14283 7.31707V10.9756C7.14283 11.3797 6.82304 11.7073 6.42855 11.7073C6.03407 11.7073 5.71428 11.3797 5.71428 10.9756V7.31707C5.71428 6.91296 6.03407 6.58536 6.42855 6.58536Z" fill="#DA400D"/>
<path fill-rule="evenodd" clip-rule="evenodd" d="M9.93539 4.61016C10.0001 3.6818 9.21881 2.93753 8.33088 3.04266C7.42229 3.15022 6.02023 3.29268 5 3.29268C3.97977 3.29268 2.57771 3.15022 1.66913 3.04266C0.78119 2.93754 -0.000123795 3.6818 0.0646084 4.61016L0.676552 13.3865C0.72294 14.0517 1.20667 14.6142 1.87051 14.7165C2.58236 14.8262 3.88855 15.0013 5.00083 15C6.09944 14.9987 7.41095 14.8243 8.12593 14.7156C8.7909 14.6146 9.27706 14.0517 9.32359 13.3845L9.93539 4.61016ZM8.49488 4.49639C8.49736 4.4961 8.49925 4.49627 8.49925 4.49627L8.50114 4.49672C8.50273 4.49728 8.50522 4.49861 8.50768 4.501C8.50931 4.50258 8.51053 4.50452 8.51053 4.50452L8.51047 4.5059L7.89934 13.2706C7.19171 13.3777 5.97894 13.5354 4.99918 13.5366C4.00879 13.5378 2.80351 13.3799 2.10077 13.2721L1.48953 4.5059L1.48947 4.50452C1.48947 4.50452 1.49069 4.50258 1.49232 4.501C1.49478 4.49861 1.49727 4.49728 1.49886 4.49672L1.50075 4.49627C1.50075 4.49627 1.50265 4.4961 1.50512 4.49639C2.41531 4.60415 3.88962 4.7561 5 4.7561C6.11038 4.7561 7.58469 4.60415 8.49488 4.49639Z" fill="#DA400D"/>
</svg>
