<svg width="22" height="21" viewBox="0 0 22 21" fill="none" xmlns="http://www.w3.org/2000/svg">
<path fill-rule="evenodd" clip-rule="evenodd" d="M2.12891 14.07V6.92125C2.12891 3.8325 4.11603 1.75 7.08141 1.75H14.6677C17.6339 1.75 19.6289 3.8325 19.6289 6.92125V14.07C19.6289 17.1675 17.6339 19.25 14.6677 19.25H7.08141C4.11603 19.25 2.12891 17.1675 2.12891 14.07ZM11.5352 12.4862V6.93C11.5352 6.5625 11.2377 6.27375 10.8789 6.27375C10.5114 6.27375 10.2227 6.5625 10.2227 6.93V12.4862L8.06141 10.3162C7.93891 10.1938 7.76391 10.1237 7.59766 10.1237C7.43228 10.1237 7.26516 10.1938 7.13391 10.3162C6.88016 10.57 6.88016 10.99 7.13391 11.2437L10.4152 14.5425C10.6602 14.7875 11.0977 14.7875 11.3427 14.5425L14.6239 11.2437C14.8777 10.99 14.8777 10.57 14.6239 10.3162C14.3614 10.0625 13.9502 10.0625 13.6877 10.3162L11.5352 12.4862Z" fill="#59A964"/>
</svg>
