<svg width="120" height="24" viewBox="0 0 120 24" fill="none" xmlns="http://www.w3.org/2000/svg">
<path d="M15.459 9.99138H15.12V8.35588L15.117 8.32488C15.1175 8.25917 15.094 8.19553 15.051 8.14588L12.33 5.03738L12.328 5.03538C12.3116 5.01791 12.2931 5.00246 12.273 4.98938L12.255 4.97838C12.2376 4.96894 12.2194 4.96124 12.2005 4.95538L12.1855 4.95038C12.1648 4.94501 12.1434 4.94232 12.122 4.94238H5.4335C5.128 4.94238 4.88 5.19088 4.88 5.49588V9.99088H4.541C4.104 9.99088 3.75 10.3449 3.75 10.7819V14.8959C3.75 15.3324 4.1045 15.6869 4.541 15.6869H4.88V18.5029C4.88 18.8079 5.128 19.0564 5.4335 19.0564H14.5665C14.8715 19.0564 15.12 18.8079 15.12 18.5029V15.6869H15.459C15.8955 15.6869 16.25 15.3329 16.25 14.8959V10.7819C16.25 10.3454 15.896 9.99138 15.459 9.99138ZM5.4335 5.49588H11.845V8.32788C11.845 8.48088 11.969 8.60438 12.122 8.60438H14.567V9.99088H5.4335V5.49588ZM9.5745 13.0799C8.9025 12.8399 8.459 12.4679 8.459 11.8804C8.459 11.1909 9.041 10.6694 9.9885 10.6694C10.4505 10.6694 10.78 10.7594 11.02 10.8729L10.816 11.6044C10.5545 11.4771 10.2673 11.4116 9.9765 11.4129C9.5805 11.4129 9.3885 11.5984 9.3885 11.8024C9.3885 12.0604 9.61 12.1739 10.138 12.3719C10.852 12.6359 11.1815 13.0074 11.1815 13.5774C11.1815 14.2554 10.666 14.8309 9.5565 14.8309C9.0945 14.8309 8.639 14.7049 8.411 14.5789L8.597 13.8294C8.91089 13.9899 9.25748 14.0761 9.61 14.0814C10.03 14.0814 10.252 13.9069 10.252 13.6434C10.252 13.3914 10.0605 13.2479 9.5745 13.0799ZM4.8115 12.8039C4.8115 11.4304 5.795 10.6689 7.018 10.6689C7.492 10.6689 7.8515 10.7644 8.0135 10.8429L7.8215 11.5684C7.57862 11.4664 7.3174 11.4153 7.054 11.4184C6.3345 11.4184 5.771 11.8559 5.771 12.7554C5.771 13.5589 6.2505 14.0689 7.06 14.0689C7.342 14.0689 7.642 14.0154 7.8275 13.9369L7.96 14.6564C7.798 14.7339 7.414 14.8304 6.9285 14.8304C5.531 14.8309 4.8115 13.9554 4.8115 12.8039ZM14.5665 18.3539H5.4335V15.6874H14.5665V18.3539ZM13.8275 14.7709H12.76L11.465 10.7289H12.4665L12.958 12.4384C13.0955 12.9239 13.2215 13.3799 13.3175 13.8834H13.3355C13.4378 13.4029 13.5597 12.9269 13.701 12.4564L14.217 10.7294H15.188L13.8275 14.7709Z" fill="#667185"/>
<path d="M28.5961 17H25.1459V6.81818H28.6657C29.6766 6.81818 30.545 7.02202 31.2709 7.42969C32 7.83404 32.5602 8.41572 32.9513 9.17472C33.3424 9.93371 33.5379 10.8419 33.5379 11.8991C33.5379 12.9598 33.3407 13.8712 32.9463 14.6335C32.5552 15.3958 31.9901 15.9808 31.251 16.3885C30.5152 16.7962 29.6302 17 28.5961 17ZM26.9903 15.4041H28.5067C29.2159 15.4041 29.8076 15.2749 30.2815 15.0163C30.7555 14.7545 31.1118 14.3651 31.3504 13.848C31.589 13.3277 31.7084 12.678 31.7084 11.8991C31.7084 11.1203 31.589 10.474 31.3504 9.96023C31.1118 9.44318 30.7588 9.05706 30.2915 8.80185C29.8274 8.54332 29.2507 8.41406 28.5613 8.41406H26.9903V15.4041ZM38.5418 17.1491C37.7961 17.1491 37.1498 16.9851 36.6029 16.657C36.056 16.3288 35.6318 15.8698 35.3302 15.2798C35.0319 14.6899 34.8827 14.0005 34.8827 13.2116C34.8827 12.4228 35.0319 11.7318 35.3302 11.1385C35.6318 10.5452 36.056 10.0845 36.6029 9.75639C37.1498 9.42827 37.7961 9.2642 38.5418 9.2642C39.2876 9.2642 39.9339 9.42827 40.4807 9.75639C41.0276 10.0845 41.4502 10.5452 41.7485 11.1385C42.0501 11.7318 42.2009 12.4228 42.2009 13.2116C42.2009 14.0005 42.0501 14.6899 41.7485 15.2798C41.4502 15.8698 41.0276 16.3288 40.4807 16.657C39.9339 16.9851 39.2876 17.1491 38.5418 17.1491ZM38.5518 15.7074C38.9561 15.7074 39.2942 15.5964 39.566 15.3743C39.8377 15.1489 40.0399 14.8473 40.1725 14.4695C40.3084 14.0916 40.3763 13.6707 40.3763 13.2067C40.3763 12.7393 40.3084 12.3168 40.1725 11.9389C40.0399 11.5578 39.8377 11.2545 39.566 11.0291C39.2942 10.8037 38.9561 10.6911 38.5518 10.6911C38.1375 10.6911 37.7928 10.8037 37.5177 11.0291C37.2459 11.2545 37.0421 11.5578 36.9062 11.9389C36.7736 12.3168 36.7073 12.7393 36.7073 13.2067C36.7073 13.6707 36.7736 14.0916 36.9062 14.4695C37.0421 14.8473 37.2459 15.1489 37.5177 15.3743C37.7928 15.5964 38.1375 15.7074 38.5518 15.7074ZM45.0857 17L42.928 9.36364H44.7625L46.1048 14.733H46.1744L47.5466 9.36364H49.3612L50.7334 14.7031H50.808L52.1304 9.36364H53.9699L51.8073 17H49.933L48.5012 11.8395H48.3968L46.9649 17H45.0857ZM57.0262 12.5256V17H55.2265V9.36364H56.9466V10.6612H57.0361C57.2118 10.2337 57.4919 9.89394 57.8763 9.64205C58.2641 9.39015 58.743 9.2642 59.3131 9.2642C59.8401 9.2642 60.2992 9.37689 60.6903 9.60227C61.0847 9.82765 61.3896 10.1541 61.605 10.5817C61.8238 11.0092 61.9315 11.5279 61.9282 12.1378V17H60.1285V12.4162C60.1285 11.9058 59.9959 11.5064 59.7307 11.218C59.4689 10.9297 59.106 10.7855 58.642 10.7855C58.3271 10.7855 58.047 10.8551 57.8018 10.9943C57.5598 11.1302 57.3692 11.3274 57.23 11.5859C57.0941 11.8445 57.0262 12.1577 57.0262 12.5256ZM65.5574 6.81818V17H63.7577V6.81818H65.5574ZM70.7391 17.1491C69.9933 17.1491 69.347 16.9851 68.8002 16.657C68.2533 16.3288 67.829 15.8698 67.5274 15.2798C67.2291 14.6899 67.08 14.0005 67.08 13.2116C67.08 12.4228 67.2291 11.7318 67.5274 11.1385C67.829 10.5452 68.2533 10.0845 68.8002 9.75639C69.347 9.42827 69.9933 9.2642 70.7391 9.2642C71.4848 9.2642 72.1311 9.42827 72.678 9.75639C73.2249 10.0845 73.6475 10.5452 73.9458 11.1385C74.2474 11.7318 74.3982 12.4228 74.3982 13.2116C74.3982 14.0005 74.2474 14.6899 73.9458 15.2798C73.6475 15.8698 73.2249 16.3288 72.678 16.657C72.1311 16.9851 71.4848 17.1491 70.7391 17.1491ZM70.749 15.7074C71.1534 15.7074 71.4914 15.5964 71.7632 15.3743C72.035 15.1489 72.2372 14.8473 72.3698 14.4695C72.5057 14.0916 72.5736 13.6707 72.5736 13.2067C72.5736 12.7393 72.5057 12.3168 72.3698 11.9389C72.2372 11.5578 72.035 11.2545 71.7632 11.0291C71.4914 10.8037 71.1534 10.6911 70.749 10.6911C70.3347 10.6911 69.99 10.8037 69.7149 11.0291C69.4432 11.2545 69.2393 11.5578 69.1034 11.9389C68.9709 12.3168 68.9046 12.7393 68.9046 13.2067C68.9046 13.6707 68.9709 14.0916 69.1034 14.4695C69.2393 14.8473 69.4432 15.1489 69.7149 15.3743C69.99 15.5964 70.3347 15.7074 70.749 15.7074ZM78.1231 17.1541C77.6392 17.1541 77.2034 17.0679 76.8156 16.8956C76.4311 16.7199 76.1262 16.4614 75.9008 16.12C75.6788 15.7786 75.5677 15.3577 75.5677 14.8572C75.5677 14.4264 75.6473 14.0701 75.8064 13.7884C75.9655 13.5066 76.1826 13.2812 76.4577 13.1122C76.7327 12.9432 77.0426 12.8156 77.3873 12.7294C77.7354 12.6399 78.095 12.5753 78.4662 12.5355C78.9136 12.4891 79.2765 12.4477 79.555 12.4112C79.8334 12.3714 80.0355 12.3118 80.1615 12.2322C80.2907 12.1494 80.3554 12.0218 80.3554 11.8494V11.8196C80.3554 11.4451 80.2443 11.1551 80.0223 10.9496C79.8002 10.7441 79.4804 10.6413 79.0628 10.6413C78.622 10.6413 78.2723 10.7375 78.0138 10.9297C77.7586 11.1219 77.5862 11.349 77.4967 11.6108L75.8163 11.3722C75.9489 10.9081 76.1676 10.5204 76.4726 10.2088C76.7775 9.89394 77.1504 9.65862 77.5912 9.50284C78.032 9.34375 78.5192 9.2642 79.0528 9.2642C79.4207 9.2642 79.787 9.30729 80.1515 9.39347C80.5161 9.47964 80.8492 9.62216 81.1508 9.82102C81.4524 10.0166 81.6944 10.2834 81.8767 10.6214C82.0623 10.9595 82.1551 11.3821 82.1551 11.8892V17H80.425V15.951H80.3653C80.2559 16.1631 80.1018 16.362 79.903 16.5476C79.7074 16.7299 79.4605 16.8774 79.1622 16.9901C78.8672 17.0994 78.5209 17.1541 78.1231 17.1541ZM78.5905 15.8317C78.9517 15.8317 79.2649 15.7604 79.5301 15.6179C79.7952 15.4721 79.9991 15.2798 80.1416 15.0412C80.2874 14.8026 80.3604 14.5424 80.3604 14.2607V13.3608C80.304 13.4072 80.2079 13.4503 80.072 13.4901C79.9394 13.5298 79.7903 13.5646 79.6246 13.5945C79.4588 13.6243 79.2948 13.6508 79.1324 13.674C78.97 13.6972 78.8291 13.7171 78.7098 13.7337C78.4413 13.7701 78.201 13.8298 77.9889 13.9126C77.7768 13.9955 77.6094 14.1115 77.4868 14.2607C77.3641 14.4065 77.3028 14.5954 77.3028 14.8274C77.3028 15.1589 77.4238 15.4091 77.6657 15.5781C77.9077 15.7472 78.2159 15.8317 78.5905 15.8317ZM86.7986 17.1342C86.1987 17.1342 85.6617 16.9801 85.1878 16.6719C84.7138 16.3636 84.3393 15.9162 84.0642 15.3295C83.7891 14.7429 83.6515 14.0303 83.6515 13.1918C83.6515 12.3433 83.7907 11.6274 84.0692 11.044C84.3509 10.4574 84.7304 10.0149 85.2077 9.71662C85.6849 9.41501 86.2169 9.2642 86.8035 9.2642C87.251 9.2642 87.6189 9.34044 87.9072 9.4929C88.1956 9.64205 88.4243 9.82268 88.5933 10.0348C88.7623 10.2436 88.8933 10.4408 88.9861 10.6264H89.0606V6.81818H90.8653V17H89.0954V15.7969H88.9861C88.8933 15.9825 88.759 16.1797 88.5834 16.3885C88.4077 16.594 88.1757 16.7696 87.8873 16.9155C87.599 17.0613 87.2361 17.1342 86.7986 17.1342ZM87.3007 15.6577C87.6818 15.6577 88.0067 15.5549 88.2751 15.3494C88.5436 15.1406 88.7474 14.8506 88.8866 14.4794C89.0258 14.1082 89.0954 13.6757 89.0954 13.1818C89.0954 12.688 89.0258 12.2588 88.8866 11.8942C88.7507 11.5296 88.5486 11.2462 88.2801 11.044C88.0149 10.8419 87.6885 10.7408 87.3007 10.7408C86.8997 10.7408 86.5649 10.8452 86.2964 11.054C86.028 11.2628 85.8258 11.5511 85.6899 11.919C85.554 12.2869 85.4861 12.7079 85.4861 13.1818C85.4861 13.6591 85.554 14.085 85.6899 14.4595C85.8291 14.8307 86.0329 15.1241 86.3014 15.3395C86.5732 15.5516 86.9063 15.6577 87.3007 15.6577Z" fill="#667185"/>
<path d="M110.934 10.2941H109.571V5.88235C109.571 5.39706 109.186 5 108.714 5H105.286C104.814 5 104.429 5.39706 104.429 5.88235V10.2941H103.066C102.303 10.2941 101.917 11.2471 102.457 11.8029L106.391 15.8529C106.726 16.1971 107.266 16.1971 107.6 15.8529L111.534 11.8029C112.074 11.2471 111.697 10.2941 110.934 10.2941ZM101 19.1176C101 19.6029 101.386 20 101.857 20H112.143C112.614 20 113 19.6029 113 19.1176C113 18.6324 112.614 18.2353 112.143 18.2353H101.857C101.386 18.2353 101 18.6324 101 19.1176Z" fill="#667185"/>
</svg>
