<svg width="424" height="376" viewBox="0 0 424 376" fill="none" xmlns="http://www.w3.org/2000/svg">
<path d="M412.539 115.534C412.54 116.111 412.388 116.678 412.099 117.178C411.81 117.677 411.394 118.091 410.893 118.378L403.77 122.47C403.36 122.706 402.904 122.851 402.433 122.895C401.962 122.938 401.488 122.88 401.042 122.723C400.956 123.17 400.776 123.594 400.515 123.967C400.254 124.341 399.917 124.654 399.526 124.888L399.266 125.04L392.373 129.024L392.179 129.132C391.774 129.328 391.334 129.44 390.885 129.461C390.436 129.482 389.987 129.412 389.566 129.255C389.49 129.734 389.307 130.191 389.031 130.591C388.755 130.99 388.392 131.323 387.971 131.564L381.475 135.317C382.677 137.322 383.35 139.6 383.431 141.936C383.431 144.296 382.485 145.855 381.027 146.432C380.788 146.621 380.523 146.774 380.241 146.887C380.002 147.08 379.734 147.233 379.447 147.342C378.921 147.649 378.394 147.954 377.866 148.258C377.624 148.446 377.357 148.599 377.072 148.713C376.833 148.902 376.568 149.055 376.286 149.168C376.043 149.355 375.776 149.508 375.492 149.622C375.255 149.815 374.99 149.968 374.705 150.077C373.471 151.052 371.659 151.088 369.609 149.904C365.907 147.739 362.897 142.564 362.897 138.269C362.897 136.104 363.662 134.603 364.882 133.975C365.013 133.913 365.148 133.86 365.286 133.816C365.408 133.707 365.538 133.608 365.676 133.52C365.805 133.46 365.938 133.407 366.073 133.361C366.193 133.25 366.323 133.151 366.463 133.065C366.592 133.001 366.728 132.948 366.867 132.907C366.988 132.796 367.119 132.694 367.256 132.604C367.386 132.546 367.518 132.495 367.653 132.452C367.775 132.341 367.906 132.24 368.043 132.149C368.173 132.087 368.308 132.036 368.447 131.997C368.567 131.884 368.698 131.783 368.837 131.694C368.966 131.634 369.099 131.581 369.234 131.535C369.356 131.427 369.486 131.328 369.624 131.239C369.755 131.178 369.89 131.125 370.028 131.081C370.15 130.972 370.28 130.873 370.418 130.785C370.547 130.724 370.68 130.671 370.815 130.626C370.937 130.545 371.065 130.472 371.197 130.409C371.329 130.349 371.464 130.296 371.601 130.251C371.721 130.14 371.852 130.041 371.991 129.955C371.809 129.784 371.616 129.625 371.414 129.478L370.822 129.053L370.237 128.663C370.028 128.526 369.819 128.396 369.602 128.273C368.911 127.874 368.186 127.536 367.437 127.263C367.206 127.176 366.975 127.097 366.715 127.032C365.879 126.77 365.008 126.634 364.131 126.627H363.72H363.417C363.263 126.627 363.111 126.627 362.962 126.627C362.232 126.636 361.513 126.449 360.879 126.088C360.245 125.726 359.718 125.203 359.353 124.57L359.18 124.275C359.18 124.275 360.768 118.804 360.782 118.782L365.835 115.751C366.832 115.045 367.936 114.501 369.104 114.141C369.302 114.098 369.502 114.069 369.703 114.055H369.869C370.126 114.037 370.384 114.037 370.641 114.055H370.916H370.988C371.495 114.116 371.997 114.215 372.489 114.351C374.344 114.895 376.118 115.684 377.765 116.696C378.155 116.92 378.487 117.151 378.884 117.418C378.256 116.848 377.614 116.314 376.957 115.801C376.661 115.563 376.365 115.332 376.062 115.079C376.021 115.037 375.975 115.001 375.925 114.971C375.665 114.769 375.398 114.574 375.124 114.379C374.64 114.033 374.149 113.658 373.644 113.355L372.98 112.921C372.641 112.698 372.258 112.481 371.948 112.272C371.638 112.063 371.089 111.752 370.656 111.5C366.636 109.183 362.991 108.201 359.693 108.201H359.007L358.235 108.252C358.04 108.252 357.852 108.252 357.657 108.317L357.253 108.374L356.892 108.432L356.351 108.533L355.723 108.685C355.499 108.743 355.275 108.8 355.052 108.872C354.828 108.945 354.676 108.988 354.496 109.046C354.045 109.202 353.572 109.282 353.096 109.284C352.366 109.29 351.648 109.104 351.014 108.742C350.38 108.381 349.853 107.858 349.487 107.227L349.408 107.09L350.642 101.807C350.642 101.807 350.642 101.806 350.728 101.734C351.299 101.33 354.113 99.3742 354.337 99.2443C355.662 98.468 357.053 97.811 358.494 97.2811C359.086 97.055 359.693 96.8529 360.313 96.6749L361.136 96.4511C361.41 96.3862 361.685 96.314 361.966 96.2562C362.529 96.1335 363.092 96.0325 363.669 95.9459L364.391 95.8448H364.557L365.423 95.7655C365.431 95.7621 365.44 95.7603 365.448 95.7603C365.457 95.7603 365.466 95.7621 365.474 95.7655L366.275 95.7149C366.349 95.7077 366.424 95.7077 366.499 95.7149C367.476 95.6864 368.455 95.7153 369.429 95.8015C370.698 95.9254 371.956 96.1498 373.189 96.4728C368.826 94.0266 363.986 92.5542 359 92.1567C357.206 92.0417 355.406 92.0949 353.623 92.3155C353.175 92.366 352.72 92.431 352.28 92.5104H352.143C351.869 92.5537 351.609 92.6042 351.342 92.6691C350.887 92.763 350.44 92.864 349.992 92.9795C349.545 93.095 349.112 93.2249 348.679 93.362C348.361 93.4534 348.051 93.5545 347.748 93.6652C347.351 93.8023 346.954 93.9539 346.571 94.1054C346.021 94.3293 345.433 94.4445 344.839 94.4446C343.992 94.4396 343.16 94.2124 342.428 93.7855C341.696 93.3587 341.089 92.7473 340.667 92.0124L340.566 91.8391C340.624 91.5649 341.945 85.7476 341.945 85.7476H341.981L342.075 85.6754L342.14 85.6249C342.804 85.1341 344.954 83.5534 345.178 83.4596C346.746 82.546 348.387 81.7662 350.086 81.1284C351.048 80.7675 352.011 80.4499 352.973 80.1757L354.02 79.9086L355.109 79.6632C356.229 79.4402 357.358 79.274 358.494 79.1652C358.877 79.1219 359.259 79.093 359.649 79.0642C360.039 79.0353 360.429 79.0209 360.818 79.0064C361.208 78.992 361.605 79.0064 362.002 79.0064C368.382 79.0064 375.383 80.7458 382.623 84.9248C385.445 86.5559 387.985 88.1366 390.324 89.7461C390.612 89.9409 390.894 90.1358 391.168 90.3379C391.89 90.8576 392.612 91.3916 393.333 91.9257L394.279 92.6475C395.001 93.196 395.657 93.7518 396.321 94.3292C396.588 94.5529 396.841 94.7767 397.101 95.0076L397.491 95.3541L398.313 96.1119C399.959 97.6536 401.518 99.2848 402.983 100.998L403.546 101.669C403.835 102.009 404.116 102.391 404.398 102.709C404.838 103.25 405.278 103.813 405.711 104.39L406.469 105.401C407.003 106.123 407.537 106.844 408.071 107.667C408.331 108.05 408.598 108.432 408.858 108.829C409.118 109.226 409.385 109.623 409.652 110.034C409.919 110.446 410.186 110.857 410.446 111.276C410.98 112.12 411.521 112.986 412.063 113.889C412.366 114.385 412.53 114.953 412.539 115.534Z" fill="#BA68C8"/>
<g opacity="0.2">
<path d="M412.539 115.534C412.54 116.111 412.388 116.678 412.099 117.178C411.81 117.677 411.394 118.091 410.893 118.378L403.77 122.47C403.36 122.706 402.904 122.851 402.433 122.895C401.962 122.938 401.488 122.88 401.042 122.723C400.956 123.17 400.776 123.594 400.515 123.967C400.254 124.341 399.917 124.654 399.526 124.888L399.266 125.04L392.373 129.024L392.179 129.132C391.774 129.328 391.334 129.44 390.885 129.461C390.436 129.482 389.987 129.412 389.566 129.255C389.49 129.734 389.307 130.191 389.031 130.591C388.755 130.99 388.392 131.323 387.971 131.564L381.475 135.317C382.677 137.322 383.35 139.6 383.431 141.936C383.431 144.296 382.485 145.855 381.027 146.432C380.788 146.621 380.523 146.774 380.241 146.887C380.002 147.08 379.734 147.233 379.447 147.342C378.921 147.649 378.394 147.954 377.866 148.258C377.624 148.446 377.357 148.599 377.072 148.713C376.833 148.902 376.568 149.055 376.286 149.168C376.043 149.355 375.776 149.508 375.492 149.622C375.255 149.815 374.99 149.968 374.705 150.077C373.471 151.052 371.659 151.088 369.609 149.904C365.907 147.739 362.897 142.564 362.897 138.269C362.897 136.104 363.662 134.603 364.882 133.975C365.013 133.913 365.148 133.86 365.286 133.816C365.408 133.707 365.538 133.608 365.676 133.52C365.805 133.46 365.938 133.407 366.073 133.361C366.193 133.25 366.323 133.151 366.463 133.065C366.592 133.001 366.728 132.948 366.867 132.907C366.988 132.796 367.119 132.694 367.256 132.604C367.386 132.546 367.518 132.495 367.653 132.452C367.775 132.341 367.906 132.24 368.043 132.149C368.173 132.087 368.308 132.036 368.447 131.997C368.567 131.884 368.698 131.783 368.837 131.694C368.966 131.634 369.099 131.581 369.234 131.535C369.356 131.427 369.486 131.328 369.624 131.239C369.755 131.178 369.89 131.125 370.028 131.081C370.15 130.972 370.28 130.873 370.418 130.785C370.547 130.724 370.68 130.671 370.815 130.626C370.937 130.545 371.065 130.472 371.197 130.409C371.329 130.349 371.464 130.296 371.601 130.251C371.721 130.14 371.852 130.041 371.991 129.955C371.809 129.784 371.616 129.625 371.414 129.478L370.822 129.053L370.237 128.663C370.028 128.526 369.819 128.396 369.602 128.273C368.911 127.874 368.186 127.536 367.437 127.263C367.206 127.176 366.975 127.097 366.715 127.032C365.879 126.77 365.008 126.634 364.131 126.627H363.72H363.417C363.263 126.627 363.111 126.627 362.962 126.627C362.232 126.636 361.513 126.449 360.879 126.088C360.245 125.726 359.718 125.203 359.353 124.57L359.18 124.275C359.18 124.275 360.768 118.804 360.782 118.782L365.835 115.751C366.832 115.045 367.936 114.501 369.104 114.141C369.302 114.098 369.502 114.069 369.703 114.055H369.869C370.126 114.037 370.384 114.037 370.641 114.055H370.916H370.988C371.495 114.116 371.997 114.215 372.489 114.351C374.344 114.895 376.118 115.684 377.765 116.696C378.155 116.92 378.487 117.151 378.884 117.418C378.256 116.848 377.614 116.314 376.957 115.801C376.661 115.563 376.365 115.332 376.062 115.079C376.021 115.037 375.975 115.001 375.925 114.971C375.665 114.769 375.398 114.574 375.124 114.379C374.64 114.033 374.149 113.658 373.644 113.355L372.98 112.921C372.641 112.698 372.258 112.481 371.948 112.272C371.638 112.063 371.089 111.752 370.656 111.5C366.636 109.183 362.991 108.201 359.693 108.201H359.007L358.235 108.252C358.04 108.252 357.852 108.252 357.657 108.317L357.253 108.374L356.892 108.432L356.351 108.533L355.723 108.685C355.499 108.743 355.275 108.8 355.052 108.872C354.828 108.945 354.676 108.988 354.496 109.046C354.045 109.202 353.572 109.282 353.096 109.284C352.366 109.29 351.648 109.104 351.014 108.742C350.38 108.381 349.853 107.858 349.487 107.227L349.408 107.09L350.642 101.807C350.642 101.807 350.642 101.806 350.728 101.734C351.299 101.33 354.113 99.3742 354.337 99.2443C355.662 98.468 357.053 97.811 358.494 97.2811C359.086 97.055 359.693 96.8529 360.313 96.6749L361.136 96.4511C361.41 96.3862 361.685 96.314 361.966 96.2562C362.529 96.1335 363.092 96.0325 363.669 95.9459L364.391 95.8448H364.557L365.423 95.7655C365.431 95.7621 365.44 95.7603 365.448 95.7603C365.457 95.7603 365.466 95.7621 365.474 95.7655L366.275 95.7149C366.349 95.7077 366.424 95.7077 366.499 95.7149C367.476 95.6864 368.455 95.7153 369.429 95.8015C370.698 95.9254 371.956 96.1498 373.189 96.4728C368.826 94.0266 363.986 92.5542 359 92.1567C357.206 92.0417 355.406 92.0949 353.623 92.3155C353.175 92.366 352.72 92.431 352.28 92.5104H352.143C351.869 92.5537 351.609 92.6042 351.342 92.6691C350.887 92.763 350.44 92.864 349.992 92.9795C349.545 93.095 349.112 93.2249 348.679 93.362C348.361 93.4534 348.051 93.5545 347.748 93.6652C347.351 93.8023 346.954 93.9539 346.571 94.1054C346.021 94.3293 345.433 94.4445 344.839 94.4446C343.992 94.4396 343.16 94.2124 342.428 93.7855C341.696 93.3587 341.089 92.7473 340.667 92.0124L340.566 91.8391C340.624 91.5649 341.945 85.7476 341.945 85.7476H341.981L342.075 85.6754L342.14 85.6249C342.804 85.1341 344.954 83.5534 345.178 83.4596C346.746 82.546 348.387 81.7662 350.086 81.1284C351.048 80.7675 352.011 80.4499 352.973 80.1757L354.02 79.9086L355.109 79.6632C356.229 79.4402 357.358 79.274 358.494 79.1652C358.877 79.1219 359.259 79.093 359.649 79.0642C360.039 79.0353 360.429 79.0209 360.818 79.0064C361.208 78.992 361.605 79.0064 362.002 79.0064C368.382 79.0064 375.383 80.7458 382.623 84.9248C385.445 86.5559 387.985 88.1366 390.324 89.7461C390.612 89.9409 390.894 90.1358 391.168 90.3379C391.89 90.8576 392.612 91.3916 393.333 91.9257L394.279 92.6475C395.001 93.196 395.657 93.7518 396.321 94.3292C396.588 94.5529 396.841 94.7767 397.101 95.0076L397.491 95.3541L398.313 96.1119C399.959 97.6536 401.518 99.2848 402.983 100.998L403.546 101.669C403.835 102.009 404.116 102.391 404.398 102.709C404.838 103.25 405.278 103.813 405.711 104.39L406.469 105.401C407.003 106.123 407.537 106.844 408.071 107.667C408.331 108.05 408.598 108.432 408.858 108.829C409.118 109.226 409.385 109.623 409.652 110.034C409.919 110.446 410.186 110.857 410.446 111.276C410.98 112.12 411.521 112.986 412.063 113.889C412.366 114.385 412.53 114.953 412.539 115.534Z" fill="black"/>
</g>
<path d="M376.307 146.094C376.307 150.352 373.305 152.106 369.602 149.955C365.9 147.804 362.89 142.622 362.89 138.328C362.89 136.163 363.655 134.661 364.875 134.033C366.095 133.405 367.762 133.405 369.602 134.459C371.559 135.731 373.187 137.449 374.352 139.471C375.518 141.493 376.188 143.763 376.307 146.094Z" fill="#BA68C8"/>
<path d="M381.908 130.929C378.997 126.716 375.145 123.239 370.656 120.774C368.571 119.523 366.278 118.658 363.886 118.219C363.197 118.098 362.489 118.147 361.824 118.362C361.158 118.577 360.555 118.952 360.068 119.453L360.025 119.504C359.425 120.127 359.03 120.919 358.893 121.773C358.756 122.627 358.884 123.503 359.26 124.282C359.309 124.393 359.365 124.502 359.426 124.607C359.791 125.239 360.317 125.763 360.951 126.124C361.585 126.486 362.304 126.672 363.034 126.664C363.184 126.664 363.335 126.664 363.489 126.664H363.792H364.204C365.08 126.67 365.951 126.806 366.787 127.068C367.018 127.133 367.249 127.212 367.509 127.299C368.259 127.573 368.983 127.911 369.674 128.309C369.891 128.432 370.1 128.562 370.31 128.699C370.519 128.836 370.707 128.952 370.894 129.089C371.082 129.226 371.291 129.363 371.486 129.515C371.681 129.666 371.883 129.818 372.078 129.977C373.79 131.383 375.309 133.009 376.596 134.812C377.119 135.484 377.882 135.928 378.724 136.051C379.566 136.175 380.424 135.968 381.118 135.475C381.812 134.982 382.289 134.24 382.45 133.404C382.61 132.568 382.442 131.702 381.98 130.987L381.908 130.929Z" fill="#BA68C8"/>
<path d="M393.5 124.463C387.523 114.806 381.403 108.52 372.323 103.157C369.232 101.312 365.765 100.186 362.179 99.8628C358.594 99.5392 354.981 100.026 351.609 101.288C351.301 101.398 351.008 101.546 350.736 101.728L350.649 101.8C349.839 102.382 349.267 103.239 349.04 104.21C348.813 105.182 348.946 106.203 349.415 107.084L349.494 107.221C349.861 107.852 350.387 108.375 351.021 108.736C351.655 109.097 352.374 109.284 353.103 109.278C353.58 109.276 354.053 109.195 354.503 109.04C354.684 108.982 354.872 108.917 355.059 108.866C355.247 108.816 355.507 108.736 355.73 108.679L356.358 108.527L356.9 108.426L357.261 108.368L357.665 108.311C357.86 108.311 358.047 108.26 358.242 108.246L359.014 108.195H359.7C362.998 108.195 366.643 109.177 370.663 111.493L371.955 112.266C372.302 112.475 372.677 112.692 372.987 112.915L373.651 113.348C374.157 113.68 374.647 114.027 375.131 114.373C375.405 114.568 375.672 114.763 375.932 114.965C375.983 114.995 376.029 115.031 376.069 115.073C376.372 115.29 376.668 115.521 376.964 115.795C377.621 116.308 378.263 116.842 378.891 117.412C378.891 117.412 378.891 117.412 378.927 117.412C382.418 120.518 385.455 124.099 387.949 128.05C388.331 128.642 388.896 129.091 389.559 129.328C389.98 129.485 390.429 129.555 390.878 129.534C391.327 129.513 391.767 129.401 392.172 129.205L392.366 129.097C392.75 128.874 393.084 128.575 393.35 128.22C393.616 127.865 393.808 127.46 393.915 127.029C394.021 126.598 394.04 126.15 393.97 125.712C393.9 125.274 393.742 124.854 393.507 124.478L393.5 124.463Z" fill="#BA68C8"/>
<path d="M404.954 117.952C396.293 103.517 389.075 96.826 375.506 88.9733C363.46 82.0517 352.071 81.8352 343.121 85.1408C342.77 85.2741 342.434 85.4435 342.118 85.6461L342.053 85.6966L341.959 85.7688H341.923C341.011 86.456 340.372 87.4444 340.119 88.5584C339.867 89.6724 340.018 90.8397 340.545 91.8531C340.545 91.9181 340.61 91.9686 340.646 92.0336C341.067 92.7685 341.675 93.3799 342.407 93.8067C343.139 94.2336 343.97 94.4608 344.817 94.4658C345.411 94.4657 346 94.3505 346.55 94.1266C346.932 93.9751 347.329 93.8235 347.726 93.6864C348.123 93.5492 348.34 93.477 348.657 93.3832C349.09 93.2461 349.523 93.1162 349.971 93.0007C350.418 92.8852 350.866 92.7842 351.32 92.6903C351.587 92.6254 351.847 92.5749 352.122 92.5316H352.259C352.699 92.4522 353.154 92.3872 353.601 92.3367C355.391 92.104 357.199 92.0435 359 92.1562C364.013 92.5378 368.882 94.0161 373.262 96.4867L374.337 97.093C385.741 103.675 392.027 109.363 399.31 121.373C399.779 122.08 400.503 122.578 401.331 122.764C402.159 122.95 403.027 122.809 403.753 122.371C404.48 121.932 405.009 121.23 405.23 120.41C405.451 119.591 405.347 118.718 404.939 117.973L404.954 117.952Z" fill="#BA68C8"/>
<g opacity="0.1">
<path d="M61.9677 236.85C-20.6602 268.664 -20.6516 320.145 61.9677 351.959C144.587 383.773 278.556 383.773 361.184 351.959C443.812 320.145 443.803 268.664 361.184 236.85C278.564 205.036 144.596 205.065 61.9677 236.85Z" fill="#8D909D"/>
</g>
<path d="M27.9893 194.658C33.4498 205.188 45.6904 210.892 50.2046 236.987C51.5483 244.417 52.0578 251.973 51.7238 259.515L62.0371 253.569C63.9383 243.151 65.6659 225.233 60.5005 206.594C56.021 190.378 45.4994 181.679 38.6238 180.013C30.9149 178.163 22.2597 183.581 27.9893 194.658Z" fill="#7B68C8"/>
<path opacity="0.5" d="M27.9893 194.658C33.4498 205.188 45.6904 210.892 50.2046 236.987C51.5483 244.417 52.0578 251.973 51.7238 259.515L62.0371 253.569C63.9383 243.151 65.6659 225.233 60.5005 206.594C56.021 190.378 45.4994 181.679 38.6238 180.013C30.9149 178.163 22.2597 183.581 27.9893 194.658Z" fill="white"/>
<path d="M55.8649 255.07C55.7442 255.047 55.6371 254.978 55.566 254.877C55.4948 254.777 55.4651 254.653 55.483 254.532C62.428 224.373 48.7463 196.367 36.8183 186.158C36.774 186.119 36.7385 186.071 36.7142 186.017C36.6898 185.963 36.6772 185.905 36.6772 185.846C36.6772 185.787 36.6898 185.728 36.7142 185.674C36.7385 185.62 36.774 185.572 36.8183 185.533C36.9154 185.451 37.0385 185.406 37.1656 185.406C37.2927 185.406 37.4157 185.451 37.5128 185.533C49.6145 195.951 63.5044 224.26 56.4813 254.749C56.4648 254.812 56.4351 254.871 56.3943 254.922C56.3535 254.974 56.3024 255.016 56.2444 255.046C56.1863 255.076 56.1225 255.094 56.0572 255.098C55.9918 255.102 55.9263 255.093 55.8649 255.07Z" fill="white"/>
<path d="M38.7107 240.936C45.404 248.003 49.0588 254.349 50.4738 260.226L56.759 256.597C58.6515 235.997 46.3415 221.803 40.2647 217.532C33.4673 212.792 23.3536 209.962 20.6711 216.525C17.9886 223.088 30.1424 231.934 38.7107 240.936Z" fill="#7B68C8"/>
<path opacity="0.65" d="M38.7107 240.936C45.404 248.003 49.0588 254.349 50.4738 260.226L56.759 256.597C58.6515 235.997 46.3415 221.803 40.2647 217.532C33.4673 212.792 23.3536 209.962 20.6711 216.525C17.9886 223.088 30.1424 231.934 38.7107 240.936Z" fill="white"/>
<path d="M54.0331 257.405C53.9257 257.384 53.8286 257.327 53.7577 257.243C53.6868 257.16 53.6462 257.055 53.6425 256.945C53.981 241.857 36.6706 220.484 28.0241 216.43C27.9683 216.407 27.9177 216.374 27.8754 216.331C27.8331 216.288 27.7999 216.237 27.778 216.181C27.7561 216.125 27.7458 216.065 27.7478 216.005C27.7498 215.945 27.7641 215.886 27.7897 215.831C27.8592 215.726 27.9648 215.65 28.0865 215.618C28.2082 215.586 28.3374 215.6 28.4495 215.657C37.504 219.946 54.9707 241.328 54.6234 257.015C54.6193 257.074 54.6029 257.132 54.5753 257.185C54.5477 257.238 54.5095 257.285 54.463 257.322C54.4166 257.36 54.3629 257.387 54.3054 257.403C54.2478 257.419 54.1877 257.423 54.1286 257.414L54.0331 257.405Z" fill="white"/>
<path d="M335.383 260.08C369.745 260.08 397.601 243.997 397.601 224.157C397.601 204.318 369.745 188.234 335.383 188.234C301.021 188.234 273.165 204.318 273.165 224.157C273.165 243.997 301.021 260.08 335.383 260.08Z" fill="#EBEBEB"/>
<path opacity="0.4" d="M199 326.998C253.676 326.998 298 312.671 298 294.998C298 277.325 253.676 262.998 199 262.998C144.324 262.998 100 277.325 100 294.998C100 312.671 144.324 326.998 199 326.998Z" fill="#B3BEE0"/>
<path d="M278.592 156.22C277.918 158.658 276.733 160.925 275.117 162.871C273.501 164.816 271.489 166.396 269.216 167.506C269.089 167.561 268.981 167.653 268.908 167.771C268.835 167.889 268.8 168.027 268.808 168.165C268.818 168.306 268.871 168.441 268.959 168.551C269.048 168.661 269.167 168.742 269.303 168.782C276.248 170.752 286.795 166.299 292.542 159.024C302.271 159.142 311.692 155.62 318.958 149.15C326.224 142.68 330.81 133.729 331.817 124.053C332.825 114.376 330.18 104.672 324.402 96.8447C318.625 89.0171 310.131 83.6308 300.587 81.7422C291.043 79.8536 281.138 81.5991 272.814 86.6363C264.491 91.6734 258.35 99.6387 255.596 108.97C252.842 118.301 253.673 128.324 257.928 137.073C262.182 145.823 269.552 152.667 278.592 156.264V156.22ZM258.486 134.986C255.227 127.51 254.479 119.18 256.354 111.243C258.23 103.307 262.627 96.1923 268.887 90.966C275.148 85.7398 282.933 82.6838 291.077 82.256C299.221 81.8283 307.284 84.0519 314.057 88.5936C320.83 93.1352 325.949 99.7501 328.645 107.446C331.342 115.143 331.471 123.506 329.013 131.282C326.555 139.057 321.642 145.827 315.012 150.575C308.382 155.323 300.392 157.794 292.239 157.618C292.131 157.615 292.025 157.638 291.928 157.684C291.831 157.731 291.747 157.801 291.683 157.887C286.865 164.163 277.923 168.426 271.508 167.775C275.776 165.087 278.835 160.848 280.041 155.951C280.071 155.793 280.045 155.629 279.967 155.488C279.89 155.348 279.765 155.238 279.616 155.178C274.917 153.407 270.623 150.706 266.993 147.236C263.362 143.766 260.469 139.6 258.486 134.986Z" fill="#7B68C8"/>
<path d="M279.616 155.178C279.765 155.237 279.89 155.347 279.967 155.488C280.045 155.629 280.071 155.792 280.041 155.95C278.831 160.841 275.772 165.073 271.508 167.757C277.923 168.408 286.865 164.145 291.683 157.869C291.747 157.783 291.831 157.713 291.928 157.666C292.025 157.619 292.131 157.597 292.239 157.6C301.636 157.777 310.759 154.423 317.803 148.2C324.848 141.977 329.303 133.339 330.287 123.991C331.271 114.643 328.713 105.266 323.118 97.7128C317.524 90.1596 309.3 84.9794 300.071 83.1959C290.842 81.4124 281.28 83.1552 273.274 88.08C265.268 93.0048 259.401 100.753 256.831 109.795C254.261 118.836 255.176 128.512 259.394 136.912C263.613 145.311 270.829 151.823 279.616 155.16V155.178Z" fill="white"/>
<path d="M286.023 141.766C281.298 141.772 276.753 139.95 273.34 136.683C269.927 133.415 267.909 128.954 267.708 124.234C267.508 119.513 269.141 114.897 272.265 111.352C275.389 107.807 279.763 105.607 284.471 105.212C289.18 104.818 293.859 106.259 297.53 109.234C301.2 112.21 303.579 116.489 304.167 121.178C304.755 125.866 303.508 130.601 300.686 134.391C297.865 138.181 293.687 140.733 289.026 141.514C288.034 141.679 287.029 141.763 286.023 141.766ZM286.023 106.017C285.06 106.018 284.099 106.096 283.149 106.251C278.693 106.988 274.694 109.419 271.989 113.036C269.284 116.653 268.082 121.176 268.634 125.659C269.187 130.141 271.451 134.237 274.953 137.089C278.456 139.941 282.925 141.329 287.427 140.961C291.929 140.594 296.114 138.501 299.108 135.119C302.102 131.737 303.673 127.328 303.491 122.815C303.31 118.302 301.391 114.034 298.135 110.903C294.88 107.772 290.54 106.021 286.023 106.017Z" fill="#455A64"/>
<path d="M292.881 141.766C288.543 141.748 284.352 140.198 281.046 137.39C277.741 134.581 275.534 130.695 274.815 126.418C274.225 122.841 274.707 119.17 276.203 115.868C277.698 112.566 280.138 109.781 283.215 107.866C286.292 105.95 289.868 104.989 293.491 105.105C297.114 105.221 300.621 106.408 303.569 108.516C306.518 110.625 308.775 113.56 310.057 116.95C311.338 120.341 311.585 124.036 310.767 127.567C309.949 131.098 308.103 134.308 305.462 136.79C302.821 139.273 299.503 140.917 295.928 141.514C294.921 141.68 293.902 141.764 292.881 141.766ZM292.942 105.834C291.967 105.838 290.995 105.919 290.033 106.078C285.602 106.826 281.63 109.257 278.95 112.865C276.269 116.472 275.085 120.976 275.647 125.435C276.209 129.895 278.472 133.964 281.964 136.794C285.456 139.624 289.906 140.995 294.385 140.62C298.864 140.246 303.025 138.155 305.998 134.785C308.972 131.415 310.528 127.026 310.342 122.535C310.156 118.045 308.241 113.8 304.999 110.688C301.756 107.575 297.436 105.837 292.942 105.834Z" fill="#455A64"/>
<path d="M300.555 140.941C296.214 140.933 292.015 139.388 288.703 136.58C285.392 133.772 283.181 129.883 282.463 125.601C281.869 122.023 282.349 118.348 283.843 115.042C285.336 111.737 287.777 108.948 290.855 107.029C293.933 105.11 297.511 104.147 301.137 104.261C304.763 104.375 308.273 105.562 311.224 107.671C314.176 109.78 316.435 112.717 317.718 116.11C319 119.504 319.248 123.201 318.429 126.735C317.611 130.269 315.763 133.481 313.119 135.964C310.475 138.448 307.154 140.092 303.576 140.689C302.578 140.858 301.568 140.942 300.555 140.941ZM283.193 125.471C283.763 128.895 285.336 132.073 287.711 134.604C290.087 137.135 293.16 138.905 296.541 139.69C299.922 140.476 303.46 140.242 306.708 139.018C309.956 137.794 312.769 135.635 314.791 132.814C316.813 129.992 317.954 126.635 318.068 123.166C318.183 119.696 317.268 116.271 315.437 113.322C313.606 110.372 310.943 108.032 307.782 106.596C304.622 105.16 301.107 104.692 297.682 105.252C293.087 106.02 288.985 108.579 286.275 112.368C283.565 116.157 282.469 120.866 283.227 125.462L283.193 125.471Z" fill="#455A64"/>
<path d="M286.57 135.931C282.23 135.921 278.035 134.375 274.727 131.567C271.418 128.759 269.211 124.871 268.495 120.591C267.901 117.013 268.381 113.338 269.874 110.033C271.368 106.727 273.808 103.938 276.887 102.019C279.965 100.1 283.543 99.137 287.169 99.2513C290.794 99.3656 294.305 100.552 297.256 102.661C300.207 104.771 302.467 107.707 303.75 111.101C305.032 114.494 305.28 118.191 304.461 121.725C303.642 125.259 301.794 128.471 299.151 130.955C296.507 133.438 293.186 135.083 289.608 135.679C288.604 135.849 287.588 135.933 286.57 135.931ZM286.622 100.043C285.653 100.042 284.686 100.124 283.731 100.286C279.14 101.05 275.04 103.602 272.327 107.384C269.615 111.165 268.512 115.868 269.259 120.461C269.802 123.769 271.281 126.853 273.52 129.348C275.759 131.843 278.665 133.646 281.895 134.543C285.125 135.441 288.544 135.395 291.75 134.412C294.955 133.429 297.812 131.55 299.983 128.996C302.155 126.442 303.551 123.32 304.006 119.999C304.461 116.677 303.956 113.295 302.552 110.251C301.147 107.207 298.901 104.628 296.078 102.82C293.255 101.011 289.974 100.047 286.622 100.043Z" fill="#455A64"/>
<path d="M289.625 136.599C285.284 136.591 281.085 135.047 277.774 132.239C274.462 129.431 272.251 125.542 271.534 121.26C270.939 117.679 271.419 114.003 272.914 110.695C274.409 107.387 276.851 104.597 279.931 102.678C283.011 100.758 286.592 99.7945 290.22 99.9096C293.848 100.025 297.36 101.213 300.312 103.324C303.265 105.435 305.525 108.375 306.807 111.77C308.089 115.166 308.335 118.866 307.515 122.401C306.694 125.937 304.844 129.15 302.197 131.634C299.551 134.118 296.227 135.761 292.646 136.356C291.648 136.518 290.637 136.6 289.625 136.599ZM289.669 100.676C287.116 100.676 284.593 101.232 282.276 102.305C279.959 103.377 277.903 104.941 276.251 106.888C274.599 108.835 273.391 111.118 272.709 113.579C272.028 116.039 271.891 118.619 272.306 121.138C272.861 124.437 274.346 127.509 276.588 129.992C278.829 132.475 281.734 134.266 284.959 135.154C288.184 136.042 291.596 135.989 294.792 135.003C297.989 134.017 300.837 132.138 303.002 129.587C305.166 127.036 306.556 123.92 307.009 120.606C307.462 117.291 306.958 113.917 305.557 110.879C304.156 107.841 301.917 105.267 299.102 103.459C296.287 101.652 293.014 100.686 289.669 100.676Z" fill="#455A64"/>
<path d="M290.615 135.134C287.804 135.129 285.104 134.038 283.078 132.088C281.053 130.139 279.859 127.482 279.747 124.674C279.635 121.865 280.613 119.121 282.476 117.017C284.34 114.912 286.944 113.609 289.746 113.38C292.548 113.151 295.329 114.014 297.51 115.788C299.69 117.562 301.101 120.11 301.446 122.9C301.791 125.69 301.045 128.505 299.363 130.758C297.681 133.01 295.194 134.525 292.421 134.986C291.824 135.083 291.22 135.132 290.615 135.134ZM280.658 125.905C280.987 127.878 281.894 129.709 283.263 131.167C284.633 132.624 286.404 133.643 288.353 134.094C290.301 134.545 292.34 134.408 294.21 133.701C296.081 132.993 297.7 131.747 298.863 130.12C300.025 128.492 300.679 126.557 300.742 124.558C300.805 122.559 300.273 120.586 299.215 118.889C298.156 117.192 296.619 115.846 294.796 115.023C292.973 114.2 290.947 113.936 288.974 114.264C286.329 114.708 283.969 116.184 282.41 118.366C280.851 120.548 280.221 123.259 280.658 125.905Z" fill="#455A64"/>
<path d="M295.563 127.545C292.838 127.533 290.216 126.499 288.215 124.648C286.214 122.798 284.98 120.264 284.755 117.548C284.531 114.832 285.332 112.13 287.002 109.976C288.672 107.821 291.089 106.371 293.775 105.912C296.624 105.444 299.543 106.125 301.892 107.804C304.241 109.482 305.83 112.023 306.311 114.871C306.778 117.719 306.097 120.636 304.418 122.984C302.739 125.332 300.198 126.919 297.352 127.398C296.76 127.494 296.162 127.543 295.563 127.545ZM295.563 106.537C295.002 106.54 294.442 106.587 293.888 106.675C291.33 107.105 289.038 108.506 287.489 110.587C285.941 112.667 285.256 115.265 285.578 117.839C285.901 120.412 287.205 122.761 289.218 124.395C291.232 126.029 293.799 126.822 296.384 126.608C298.968 126.394 301.37 125.189 303.087 123.245C304.804 121.302 305.704 118.77 305.598 116.179C305.492 113.588 304.389 111.138 302.519 109.341C300.649 107.544 298.157 106.539 295.563 106.537Z" fill="#455A64"/>
<path d="M293.254 129.316C290.434 129.326 287.719 128.245 285.678 126.299C283.636 124.353 282.426 121.694 282.299 118.876C282.173 116.059 283.141 113.302 285 111.181C286.859 109.061 289.466 107.741 292.276 107.498C295.085 107.255 297.88 108.107 300.076 109.877C302.272 111.646 303.699 114.196 304.059 116.993C304.418 119.791 303.682 122.619 302.005 124.886C300.328 127.153 297.84 128.685 295.06 129.16C294.464 129.263 293.86 129.316 293.254 129.316ZM293.254 108.308C292.693 108.307 292.132 108.353 291.579 108.447C289.021 108.876 286.729 110.278 285.18 112.358C283.632 114.438 282.947 117.036 283.269 119.61C283.591 122.183 284.896 124.532 286.909 126.166C288.923 127.801 291.49 128.593 294.075 128.379C296.659 128.165 299.061 126.96 300.778 125.017C302.495 123.073 303.395 120.541 303.289 117.95C303.183 115.359 302.079 112.909 300.21 111.112C298.34 109.315 295.848 108.31 293.254 108.308Z" fill="#455A64"/>
<path d="M298.194 123.291C296.201 123.285 294.248 122.732 292.548 121.692C290.848 120.652 289.465 119.166 288.552 117.394C287.639 115.623 287.229 113.635 287.368 111.647C287.507 109.659 288.188 107.747 289.339 106.12C290.592 104.37 292.336 103.03 294.35 102.27C296.364 101.51 298.558 101.364 300.655 101.849C302.752 102.335 304.658 103.431 306.133 104.999C307.608 106.567 308.585 108.537 308.941 110.66C309.411 113.509 308.731 116.427 307.052 118.776C305.372 121.124 302.83 122.71 299.982 123.187C299.39 123.273 298.792 123.308 298.194 123.291ZM298.194 102.291C296.725 102.29 295.273 102.61 293.939 103.226C292.606 103.843 291.423 104.743 290.472 105.863C289.521 106.983 288.825 108.297 288.433 109.713C288.041 111.129 287.962 112.613 288.202 114.063C288.642 116.711 290.115 119.075 292.298 120.637C294.482 122.198 297.196 122.828 299.843 122.388C302.491 121.948 304.856 120.475 306.417 118.292C307.978 116.108 308.608 113.394 308.169 110.747C307.773 108.389 306.557 106.247 304.735 104.7C302.913 103.152 300.602 102.299 298.211 102.291H298.194Z" fill="#455A64"/>
<path d="M294.513 124.03C292.073 124.023 289.714 123.153 287.853 121.574C285.993 119.994 284.751 117.808 284.347 115.401C283.998 113.313 284.3 111.168 285.21 109.257C286.121 107.346 287.596 105.76 289.438 104.715C291.279 103.67 293.397 103.216 295.504 103.415C297.612 103.613 299.608 104.454 301.222 105.824C302.836 107.194 303.99 109.027 304.528 111.074C305.066 113.122 304.962 115.285 304.23 117.272C303.498 119.258 302.173 120.972 300.435 122.181C298.697 123.39 296.63 124.035 294.513 124.03ZM294.513 104.15C293.983 104.149 293.454 104.196 292.933 104.289C290.435 104.704 288.204 106.094 286.731 108.153C285.257 110.213 284.662 112.773 285.076 115.271C285.376 117.067 286.183 118.74 287.402 120.093C288.621 121.445 290.201 122.421 291.956 122.905C293.711 123.389 295.568 123.362 297.308 122.825C299.048 122.289 300.599 121.267 301.777 119.878C302.955 118.49 303.711 116.794 303.957 114.99C304.203 113.186 303.928 111.349 303.165 109.696C302.402 108.043 301.181 106.643 299.648 105.66C298.116 104.678 296.334 104.154 294.513 104.15Z" fill="#455A64"/>
<path d="M285.163 125.913C283.087 125.911 281.055 125.316 279.306 124.197C277.557 123.078 276.164 121.482 275.292 119.598C274.421 117.714 274.106 115.619 274.385 113.562C274.665 111.505 275.527 109.57 276.869 107.986C278.212 106.403 279.98 105.236 281.964 104.624C283.948 104.012 286.066 103.98 288.067 104.533C290.069 105.085 291.871 106.198 293.26 107.74C294.65 109.283 295.57 111.19 295.911 113.239C296.38 116.087 295.701 119.006 294.021 121.354C292.342 123.703 289.799 125.289 286.952 125.766C286.361 125.866 285.763 125.915 285.163 125.913ZM285.163 104.913C284.605 104.913 284.047 104.959 283.497 105.052C280.927 105.483 278.624 106.89 277.068 108.98C275.512 111.069 274.824 113.679 275.148 116.264C275.471 118.849 276.782 121.209 278.805 122.85C280.828 124.492 283.408 125.287 286.004 125.071C288.6 124.855 291.012 123.643 292.736 121.69C294.46 119.736 295.362 117.192 295.253 114.589C295.145 111.986 294.034 109.526 292.154 107.722C290.273 105.919 287.769 104.913 285.163 104.913Z" fill="#455A64"/>
<path d="M292.534 132.39C288.195 132.375 284.002 130.826 280.695 128.017C277.389 125.208 275.183 121.32 274.468 117.041C273.877 113.46 274.362 109.783 275.861 106.477C277.36 103.171 279.806 100.384 282.889 98.4678C285.972 96.5518 289.554 95.5932 293.182 95.7132C296.81 95.8331 300.321 97.0263 303.271 99.1419C306.221 101.257 308.477 104.2 309.754 107.598C311.031 110.996 311.272 114.696 310.446 118.231C309.62 121.766 307.765 124.976 305.114 127.456C302.463 129.936 299.137 131.575 295.555 132.164C294.555 132.32 293.545 132.396 292.534 132.39ZM275.171 116.92C275.742 120.347 277.316 123.529 279.694 126.062C282.073 128.595 285.149 130.366 288.534 131.151C291.919 131.936 295.461 131.7 298.712 130.472C301.963 129.244 304.776 127.08 306.797 124.253C308.818 121.426 309.955 118.064 310.065 114.591C310.175 111.118 309.253 107.69 307.415 104.741C305.577 101.792 302.906 99.454 299.74 98.023C296.573 96.592 293.053 96.1319 289.625 96.7011C285.034 97.4749 280.938 100.038 278.235 103.829C275.531 107.619 274.442 112.327 275.206 116.92H275.171Z" fill="#455A64"/>
<path d="M299.366 133.806C294.627 133.808 290.072 131.978 286.651 128.7C283.231 125.421 281.21 120.947 281.012 116.212C280.814 111.478 282.454 106.851 285.588 103.298C288.723 99.7446 293.11 97.5409 297.832 97.1474C302.554 96.754 307.245 98.2011 310.925 101.186C314.604 104.172 316.987 108.464 317.575 113.165C318.164 117.867 316.912 122.614 314.081 126.414C311.25 130.214 307.06 132.772 302.387 133.554C301.389 133.723 300.378 133.807 299.366 133.806ZM299.366 97.8827C298.397 97.8829 297.43 97.9642 296.475 98.1258C292.01 98.8768 288.009 101.325 285.307 104.958C282.605 108.591 281.412 113.128 281.978 117.62C282.544 122.112 284.824 126.211 288.342 129.061C291.86 131.91 296.344 133.29 300.855 132.911C305.367 132.531 309.557 130.422 312.55 127.025C315.543 123.628 317.107 119.205 316.914 114.682C316.722 110.159 314.788 105.885 311.518 102.754C308.247 99.623 303.893 97.8776 299.366 97.8827Z" fill="#455A64"/>
<path d="M313.517 18.4491L316.329 19.5169C316.564 19.612 316.825 19.6176 317.064 19.5328C317.302 19.448 317.501 19.2786 317.623 19.0568L324.906 3.23963C324.95 3.12824 324.97 3.00908 324.965 2.88961C324.96 2.77014 324.931 2.65294 324.879 2.54536C324.827 2.43777 324.753 2.34212 324.662 2.2644C324.571 2.18668 324.465 2.12857 324.351 2.0937L319.029 0.0796584C318.923 0.0309454 318.809 0.00399388 318.693 0.00041122C318.576 -0.00317144 318.46 0.0166858 318.352 0.0588018C318.243 0.100918 318.144 0.164433 318.061 0.245568C317.977 0.326702 317.911 0.4238 317.866 0.531083L312.831 17.3293C312.79 17.5673 312.838 17.8119 312.964 18.0178C313.09 18.2237 313.286 18.377 313.517 18.4491Z" fill="#7B68C8"/>
<path d="M311.945 26.8606C312.51 27.0834 313.128 27.1333 313.722 27.004C314.315 26.8748 314.857 26.5722 315.278 26.1346C315.699 25.697 315.98 25.1442 316.087 24.5464C316.193 23.9485 316.119 23.3325 315.875 22.7766C315.631 22.2207 315.227 21.7499 314.714 21.424C314.202 21.0981 313.604 20.9318 312.997 20.9462C312.39 20.9605 311.801 21.1549 311.305 21.5047C310.808 21.8544 310.427 22.3438 310.209 22.9106C310.063 23.2839 309.992 23.6823 310.001 24.083C310.009 24.4838 310.096 24.8789 310.258 25.2458C310.419 25.6127 310.651 25.9442 310.941 26.2213C311.23 26.4984 311.572 26.7156 311.945 26.8606Z" fill="#7B68C8"/>
<path d="M325.175 29.6142L326.912 31.6716C327.054 31.8492 327.257 31.9679 327.481 32.0048C327.705 32.0416 327.936 31.9941 328.127 31.8713L340.741 22.5303C340.825 22.4622 340.894 22.3772 340.943 22.2808C340.992 22.1845 341.02 22.0789 341.026 21.9708C341.032 21.8628 341.015 21.7548 340.976 21.6538C340.937 21.5527 340.878 21.461 340.802 21.3844L337.477 17.4952C337.417 17.4081 337.339 17.3346 337.249 17.2794C337.159 17.2242 337.059 17.1885 336.954 17.1745C336.849 17.1606 336.743 17.1688 336.641 17.1987C336.54 17.2285 336.446 17.2792 336.365 17.3476L325.132 28.4162C324.984 28.5831 324.906 28.8008 324.914 29.0239C324.922 29.247 325.015 29.4584 325.175 29.6142Z" fill="#7B68C8"/>
<path d="M320.288 35.5599C320.642 35.9735 321.11 36.273 321.634 36.4205C322.158 36.568 322.714 36.5568 323.231 36.3883C323.749 36.2199 324.205 35.9018 324.541 35.4743C324.878 35.0467 325.081 34.5289 325.123 33.9863C325.166 33.4437 325.046 32.9007 324.78 32.4259C324.514 31.9512 324.113 31.566 323.628 31.3191C323.143 31.0721 322.596 30.9746 322.055 31.0387C321.515 31.1028 321.006 31.3258 320.592 31.6794C320.316 31.9135 320.089 32.1999 319.925 32.522C319.76 32.8442 319.661 33.1957 319.632 33.5564C319.604 33.9171 319.648 34.2798 319.76 34.6236C319.873 34.9674 320.052 35.2856 320.288 35.5599Z" fill="#7B68C8"/>
<g opacity="0.3">
<path d="M325.175 29.6142L326.912 31.6716C327.054 31.8492 327.257 31.9679 327.481 32.0048C327.705 32.0416 327.936 31.9941 328.127 31.8713L340.741 22.5303C340.825 22.4622 340.894 22.3772 340.943 22.2808C340.992 22.1845 341.02 22.0789 341.026 21.9708C341.032 21.8628 341.015 21.7548 340.976 21.6538C340.937 21.5527 340.878 21.461 340.802 21.3844L337.477 17.4952C337.417 17.4081 337.339 17.3346 337.249 17.2794C337.159 17.2242 337.059 17.1885 336.954 17.1745C336.849 17.1606 336.743 17.1688 336.641 17.1987C336.54 17.2285 336.446 17.2792 336.365 17.3476L325.132 28.4162C324.984 28.5831 324.906 28.8008 324.914 29.0239C324.922 29.247 325.015 29.4584 325.175 29.6142Z" fill="white"/>
<path d="M320.288 35.5599C320.642 35.9735 321.11 36.273 321.634 36.4205C322.158 36.568 322.714 36.5568 323.231 36.3883C323.749 36.2199 324.205 35.9018 324.541 35.4743C324.878 35.0467 325.081 34.5289 325.123 33.9863C325.166 33.4437 325.046 32.9007 324.78 32.4259C324.514 31.9512 324.113 31.566 323.628 31.3191C323.143 31.0721 322.596 30.9746 322.055 31.0387C321.515 31.1028 321.006 31.3258 320.592 31.6794C320.316 31.9135 320.089 32.1999 319.925 32.522C319.76 32.8442 319.661 33.1957 319.632 33.5564C319.604 33.9171 319.648 34.2798 319.76 34.6236C319.873 34.9674 320.052 35.2856 320.288 35.5599Z" fill="white"/>
</g>
<path d="M381.194 151.766C382.192 165.977 376.358 187.254 376.358 187.254L352.719 177.523L340.722 207.838L310.997 196.908L307.664 203.549L303.21 202.264L297.576 220.972L273.703 214.27C273.703 214.27 283.461 232.579 304.617 240.887C313.861 243.404 323.536 243.914 332.993 242.383C342.45 240.851 351.47 237.313 359.447 232.006C367.423 226.7 374.172 219.748 379.239 211.617C384.306 203.487 387.574 194.366 388.825 184.867C389.754 177.288 387.566 158.433 381.194 151.766Z" fill="#7B68C8"/>
<g style="mix-blend-mode:screen" opacity="0.5">
<path d="M381.194 151.766C382.192 165.977 376.358 187.254 376.358 187.254L352.719 177.523L340.722 207.838L310.997 196.908L307.664 203.549L303.21 202.264L297.576 220.972L273.703 214.27C273.703 214.27 283.461 232.579 304.617 240.887C313.861 243.404 323.536 243.914 332.993 242.383C342.45 240.851 351.47 237.313 359.447 232.006C367.423 226.7 374.172 219.748 379.239 211.617C384.306 203.487 387.574 194.366 388.825 184.867C389.754 177.288 387.566 158.433 381.194 151.766Z" fill="white"/>
</g>
<path d="M304.617 240.914C297.498 231.711 293.279 219.098 292.611 206.015C305.324 210.06 318.52 212.396 331.85 212.96C333.428 207.859 335.321 202.86 337.519 197.994C347.207 201.466 364.127 206.857 364.127 206.857L367.478 202.004C367.478 202.004 369.613 202.412 370.95 202.829C374.344 188.279 374.258 180.735 374.223 166.732C381.168 173.087 384.918 177.706 388.825 184.876C387.574 194.375 384.306 203.496 379.239 211.626C374.172 219.757 367.423 226.709 359.447 232.015C351.47 237.322 342.45 240.86 332.993 242.392C323.536 243.923 313.861 243.413 304.617 240.896V240.914Z" fill="#7B68C8"/>
<path opacity="0.85" d="M304.617 240.914C297.498 231.711 293.279 219.098 292.611 206.015C305.324 210.06 318.52 212.396 331.85 212.96C333.428 207.859 335.321 202.86 337.519 197.994C347.207 201.466 364.127 206.857 364.127 206.857L367.478 202.004C367.478 202.004 369.613 202.412 370.95 202.829C374.344 188.279 374.258 180.735 374.223 166.732C381.168 173.087 384.918 177.706 388.825 184.876C387.574 194.375 384.306 203.496 379.239 211.626C374.172 219.757 367.423 226.709 359.447 232.015C351.47 237.322 342.45 240.86 332.993 242.392C323.536 243.923 313.861 243.413 304.617 240.896V240.914Z" fill="white"/>
<path d="M388.825 184.892C386.355 180.226 383.269 175.913 379.649 172.07C378.208 180.517 376.359 187.271 376.359 187.271L373.754 186.195C373.226 191.805 372.292 197.37 370.959 202.845C369.622 202.429 367.486 202.021 367.486 202.021L364.135 206.873C364.135 206.873 353.11 203.401 343.76 200.189L340.731 207.854L334.419 205.536C333.488 207.985 332.634 210.465 331.859 212.976C321.563 212.533 311.341 211.032 301.353 208.497L297.585 220.998L294.798 220.216C296.656 227.703 299.998 234.741 304.625 240.912C315.58 243.916 327.121 244.071 338.152 241.364C340.19 240.86 342.215 240.258 344.229 239.558C345.236 239.211 346.243 238.838 347.242 238.438C349.25 237.634 351.229 236.728 353.18 235.721C361.013 231.694 367.97 226.153 373.648 219.419C379.325 212.685 383.61 204.892 386.255 196.491C386.455 195.857 386.646 195.232 386.819 194.589C387.184 193.322 387.505 192.046 387.792 190.752C387.931 190.11 388.069 189.459 388.191 188.808C388.443 187.514 388.651 186.203 388.816 184.892H388.825Z" fill="#7B68C8"/>
<g style="mix-blend-mode:screen" opacity="0.7">
<path d="M388.825 184.892C386.355 180.226 383.269 175.913 379.649 172.07C378.208 180.517 376.359 187.271 376.359 187.271L373.754 186.195C373.226 191.805 372.292 197.37 370.959 202.845C369.622 202.429 367.486 202.021 367.486 202.021L364.135 206.873C364.135 206.873 353.11 203.401 343.76 200.189L340.731 207.854L334.419 205.536C333.488 207.985 332.634 210.465 331.859 212.976C321.563 212.533 311.341 211.032 301.353 208.497L297.585 220.998L294.798 220.216C296.656 227.703 299.998 234.741 304.625 240.912C315.58 243.916 327.121 244.071 338.152 241.364C340.19 240.86 342.215 240.258 344.229 239.558C345.236 239.211 346.243 238.838 347.242 238.438C349.25 237.634 351.229 236.728 353.18 235.721C361.013 231.694 367.97 226.153 373.648 219.419C379.325 212.685 383.61 204.892 386.255 196.491C386.455 195.857 386.646 195.232 386.819 194.589C387.184 193.322 387.505 192.046 387.792 190.752C387.931 190.11 388.069 189.459 388.191 188.808C388.443 187.514 388.651 186.203 388.816 184.892H388.825Z" fill="white"/>
</g>
<path d="M292.775 251.999C290.805 260.893 286.999 269.278 281.601 276.617C276.203 283.955 269.332 290.085 261.428 294.615C215.53 321.11 184.955 288.278 166.455 298.956L153.164 306.63L130.133 266.74L143.424 259.066C161.923 248.379 148.19 205.824 194.087 179.328C205.811 172.531 219.334 169.483 232.84 170.595C229.845 179.945 229.593 187.185 229.194 192.35C234.032 193.936 238.96 195.232 243.952 196.231C242.87 207.273 241.779 218.319 240.679 229.367C250.316 231.025 271.506 236.564 271.506 236.564L270.169 240.548L274.241 241.529L273.633 252.086C273.633 252.086 284.033 254.152 292.775 251.999Z" fill="#7B68C8"/>
<g style="mix-blend-mode:screen" opacity="0.5">
<path d="M292.775 251.999C290.805 260.893 286.999 269.278 281.601 276.617C276.203 283.955 269.332 290.085 261.428 294.615C215.53 321.11 184.955 288.278 166.455 298.956L153.164 306.63L130.133 266.74L143.424 259.066C161.923 248.379 148.19 205.824 194.087 179.328C205.811 172.531 219.334 169.483 232.84 170.595C229.845 179.945 229.593 187.185 229.194 192.35C234.032 193.936 238.96 195.232 243.952 196.231C242.87 207.273 241.779 218.319 240.679 229.367C250.316 231.025 271.506 236.564 271.506 236.564L270.169 240.548L274.241 241.529L273.633 252.086C273.633 252.086 284.033 254.152 292.775 251.999Z" fill="white"/>
</g>
<path d="M292.775 251.999C290.805 260.893 286.999 269.278 281.601 276.617C276.203 283.955 269.332 290.085 261.428 294.615C215.53 321.11 184.955 288.278 166.455 298.956L153.164 306.63L130.133 266.74L143.424 259.066C161.923 248.379 148.19 205.824 194.087 179.328C205.811 172.531 219.334 169.483 232.84 170.595C225.895 174.84 221.433 178.816 215.417 186.039C229.402 185.336 236.929 184.893 251.609 187.593C251.262 188.939 250.958 191.065 250.958 191.065L255.958 194.191C255.958 194.191 251.418 211.327 248.38 221.172C253.343 223.133 258.422 224.786 263.589 226.12C263.655 239.457 261.944 252.743 258.502 265.629C271.532 264.37 283.929 259.552 292.775 251.999Z" fill="#7B68C8"/>
<path opacity="0.85" d="M292.775 251.999C290.805 260.893 286.999 269.278 281.601 276.617C276.203 283.955 269.332 290.085 261.428 294.615C215.53 321.11 184.955 288.278 166.455 298.956L153.164 306.63L130.133 266.74L143.424 259.066C161.923 248.379 148.19 205.824 194.087 179.328C205.811 172.531 219.334 169.483 232.84 170.595C225.895 174.84 221.433 178.816 215.417 186.039C229.402 185.336 236.929 184.893 251.609 187.593C251.262 188.939 250.958 191.065 250.958 191.065L255.958 194.191C255.958 194.191 251.418 211.327 248.38 221.172C253.343 223.133 258.422 224.786 263.589 226.12C263.655 239.457 261.944 252.743 258.502 265.629C271.532 264.37 283.929 259.552 292.775 251.999Z" fill="white"/>
<path d="M258.502 265.655C261.219 255.469 262.86 245.026 263.398 234.498C256.366 232.761 246.461 230.357 240.697 229.367C241.791 218.324 242.881 207.279 243.97 196.231C238.977 195.232 234.049 193.936 229.211 192.35C229.368 190.371 229.498 188.088 229.767 185.501C225.426 185.501 220.938 185.761 215.434 186.039C221.45 178.816 225.852 174.84 232.858 170.595C219.351 169.483 205.828 172.531 194.105 179.328C148.207 205.824 161.984 248.379 143.441 259.066L130.15 266.74L153.181 306.63L166.437 298.956C184.937 288.278 215.512 321.11 261.41 294.615C269.314 290.085 276.185 283.955 281.583 276.617C286.981 269.278 290.788 260.893 292.758 251.999C283.929 259.552 271.532 264.37 258.502 265.655Z" fill="#7B68C8"/>
<g style="mix-blend-mode:screen" opacity="0.7">
<path d="M258.502 265.655C261.219 255.469 262.86 245.026 263.398 234.498C256.366 232.761 246.461 230.357 240.697 229.367C241.791 218.324 242.881 207.279 243.97 196.231C238.977 195.232 234.049 193.936 229.211 192.35C229.368 190.371 229.498 188.088 229.767 185.501C225.426 185.501 220.938 185.761 215.434 186.039C221.45 178.816 225.852 174.84 232.858 170.595C219.351 169.483 205.828 172.531 194.105 179.328C148.207 205.824 161.984 248.379 143.441 259.066L130.15 266.74L153.181 306.63L166.437 298.956C184.937 288.278 215.512 321.11 261.41 294.615C269.314 290.085 276.185 283.955 281.583 276.617C286.981 269.278 290.788 260.893 292.758 251.999C283.929 259.552 271.532 264.37 258.502 265.655Z" fill="white"/>
</g>
<path opacity="0.15" d="M143.424 259.065L130.133 266.739L135.246 275.594C141.774 270.133 148.997 263.926 152.001 260.749C158.077 254.342 155.143 237.44 159.449 222.057C153.989 238.577 153.285 253.335 143.424 259.065Z" fill="#7B68C8"/>
<path opacity="0.15" d="M148.554 298.643L153.199 306.603L166.437 298.955C176.134 293.356 189.156 299.71 205.954 303.218C190.745 299.207 177.723 288.59 169.285 290.664C165.04 291.698 156.072 294.892 148.094 297.853L148.554 298.643Z" fill="#7B68C8"/>
<path d="M138.927 281.723C138.817 281.724 138.708 281.698 138.61 281.649C138.511 281.599 138.427 281.526 138.363 281.436C138.257 281.285 138.215 281.098 138.246 280.916C138.277 280.735 138.378 280.572 138.527 280.464L161.845 263.97C165.941 261.063 169.356 257.301 171.855 252.945L184.816 230.321C185.609 228.935 186.731 227.766 188.083 226.917C189.435 226.067 190.975 225.564 192.568 225.451C196.127 225.199 198.94 225.59 200.963 226.632L201.371 226.458C207.022 224.288 214.853 224.175 219.402 227.986C220.586 227.631 221.801 227.387 223.031 227.257C225.047 226.973 227.101 227.121 229.055 227.691C231.104 228.302 232.831 229.692 233.865 231.563C233.949 231.727 233.964 231.919 233.907 232.094C233.85 232.27 233.726 232.416 233.561 232.5C233.396 232.584 233.205 232.599 233.029 232.543C232.853 232.486 232.707 232.361 232.623 232.196C231.761 230.652 230.327 229.508 228.63 229.01C226.862 228.505 225.007 228.378 223.187 228.637C222.309 228.735 221.438 228.895 220.582 229.115C222.282 231.062 223.23 233.553 223.256 236.138C223.286 237.627 222.845 239.088 221.998 240.313C221.335 241.154 220.461 241.805 219.466 242.2C218.47 242.595 217.388 242.72 216.329 242.562C215.201 242.402 214.141 241.93 213.266 241.2C212.392 240.47 211.739 239.51 211.38 238.43C211.107 237.277 211.123 236.075 211.426 234.93C211.729 233.786 212.31 232.733 213.117 231.867C214.396 230.377 216.016 229.219 217.839 228.49C213.776 225.651 207.318 225.772 202.378 227.517C205.547 230.052 205.738 233.108 204.904 235.009C204.436 236.071 203.611 236.935 202.573 237.452C201.534 237.969 200.347 238.106 199.218 237.839C198.315 237.716 197.482 237.285 196.859 236.619C196.236 235.954 195.861 235.094 195.798 234.184C195.598 231.788 197.143 229.089 199.452 227.439C197.252 226.774 194.942 226.553 192.655 226.788C191.29 226.883 189.969 227.314 188.81 228.043C187.652 228.771 186.691 229.775 186.014 230.964L173.053 253.587C170.449 258.114 166.895 262.024 162.635 265.046C157.366 268.788 149.145 274.596 139.326 281.584C139.209 281.668 139.071 281.716 138.927 281.723ZM219.072 229.531C217.188 230.165 215.505 231.285 214.193 232.778C213.117 234.063 212.17 236.12 212.752 238.048C213.036 238.874 213.544 239.606 214.218 240.162C214.892 240.718 215.706 241.077 216.572 241.199C217.38 241.327 218.207 241.238 218.969 240.942C219.732 240.647 220.402 240.154 220.912 239.515C221.565 238.503 221.89 237.315 221.841 236.112C221.812 233.641 220.818 231.28 219.072 229.531ZM200.911 228.16C198.471 229.531 197.03 232.17 197.195 234.072C197.238 234.679 197.493 235.252 197.915 235.692C198.337 236.131 198.899 236.409 199.504 236.476C200.321 236.676 201.182 236.582 201.937 236.213C202.692 235.843 203.293 235.221 203.637 234.454C204.34 232.865 204.045 230.408 201.128 228.307C201.059 228.253 200.986 228.204 200.911 228.16Z" fill="#455A64"/>
<path d="M145.307 292.774C145.174 292.772 145.044 292.733 144.932 292.661C144.82 292.588 144.73 292.486 144.674 292.366C144.636 292.283 144.615 292.193 144.612 292.101C144.609 292.01 144.624 291.919 144.656 291.834C144.689 291.748 144.737 291.67 144.8 291.603C144.862 291.537 144.938 291.483 145.021 291.446C155.968 286.428 165.118 282.217 170.986 279.518C175.737 277.341 180.902 276.219 186.127 276.227L212.17 276.314C213.533 276.316 214.875 275.982 216.078 275.343C217.281 274.705 218.309 273.78 219.072 272.651C220.448 270.796 221.443 268.686 221.997 266.444C219.393 267.616 216.302 267.607 214.323 266.235C213.567 265.727 213.01 264.974 212.745 264.102C212.481 263.23 212.526 262.294 212.873 261.452C213.204 260.338 213.916 259.376 214.883 258.733C215.851 258.091 217.014 257.809 218.169 257.936C220.235 258.162 222.779 259.863 223.378 263.865C225.27 262.366 226.498 260.184 226.798 257.788C226.801 257.694 226.824 257.601 226.864 257.515C226.905 257.429 226.962 257.353 227.033 257.29C227.105 257.228 227.188 257.18 227.278 257.151C227.368 257.122 227.463 257.111 227.557 257.12C227.652 257.129 227.743 257.157 227.826 257.203C227.909 257.248 227.982 257.311 228.04 257.385C228.099 257.46 228.141 257.546 228.165 257.638C228.188 257.729 228.193 257.825 228.178 257.919C227.995 259.385 227.516 260.8 226.77 262.075C226.024 263.351 225.026 264.462 223.838 265.341L223.491 265.61C223.378 267.876 222.319 270.515 220.313 273.423C219.424 274.742 218.224 275.822 216.819 276.569C215.414 277.315 213.848 277.705 212.257 277.703L186.213 277.616H186.1C181.114 277.623 176.187 278.704 171.655 280.785C165.786 283.485 156.636 287.687 145.681 292.704C145.566 292.764 145.436 292.788 145.307 292.774ZM217.587 259.29C216.814 259.302 216.064 259.561 215.449 260.03C214.833 260.498 214.384 261.152 214.167 261.895C213.922 262.453 213.882 263.079 214.051 263.665C214.221 264.25 214.591 264.757 215.096 265.098C216.658 266.192 219.662 266.261 222.041 264.829V264.577C221.676 260.992 219.706 259.516 217.978 259.325C217.849 259.305 217.718 259.294 217.587 259.29Z" fill="#455A64"/>
<path d="M153.233 306.743C156.194 305.007 158.025 301.361 158.025 296.135C158.025 285.717 150.69 272.982 141.644 267.765C137.121 265.16 133.024 264.9 130.063 266.619L123.24 270.551C120.279 272.288 118.448 275.942 118.448 281.168C118.448 291.586 125.792 304.321 134.829 309.539C139.361 312.143 143.45 312.395 146.419 310.685L153.233 306.743Z" fill="#7B68C8"/>
<path d="M116.086 283.365C116.086 273.382 123.092 269.336 131.713 274.328C140.333 279.319 147.339 291.456 147.339 301.439C147.339 311.423 140.333 315.468 131.713 310.476C123.092 305.485 116.086 293.348 116.086 283.365Z" fill="#37474F"/>
<path d="M113.794 285.11C113.794 275.352 120.644 271.403 129.091 276.273C137.538 281.143 144.387 293.01 144.387 302.768C144.387 312.526 137.538 316.475 129.091 311.597C120.644 306.718 113.794 294.859 113.794 285.11Z" fill="#455A64"/>
<path d="M111.503 286.847C111.503 277.297 118.187 273.46 126.434 278.226C134.682 282.992 141.366 294.573 141.366 304.096C141.366 313.619 134.682 317.483 126.434 312.717C118.187 307.951 111.503 296.37 111.503 286.847Z" fill="#37474F"/>
<path d="M109.202 288.591C109.202 279.293 115.73 275.526 123.778 280.17C131.825 284.815 138.354 296.126 138.354 305.415C138.354 314.704 131.825 318.481 123.778 313.836C115.73 309.192 109.202 297.88 109.202 288.591Z" fill="#455A64"/>
<path d="M106.91 290.327C106.91 281.263 113.274 277.591 121.122 282.123C128.969 286.655 135.341 297.68 135.341 306.743C135.341 315.806 128.978 319.487 121.122 314.973C113.265 310.458 106.91 299.39 106.91 290.327Z" fill="#37474F"/>
<path d="M104.94 292.055C104.94 283.313 111.077 279.771 118.647 284.137C126.217 288.504 132.355 299.138 132.355 307.88C132.355 316.622 126.217 320.182 118.691 315.789C111.164 311.396 104.94 300.788 104.94 292.055Z" fill="#455A64"/>
<path d="M107.119 295.935C107.119 290.024 111.242 287.61 116.373 290.553C121.503 293.496 125.67 300.675 125.688 306.587C125.705 312.499 121.556 314.904 116.434 311.961C111.312 309.018 107.136 301.839 107.119 295.935Z" fill="#263238"/>
<path d="M120.479 313.238L119.411 311.398C120.098 310.284 120.437 308.99 120.384 307.682C120.384 302.873 116.981 297.039 112.805 294.66C111.701 293.963 110.412 293.615 109.107 293.662L108.039 291.83L105.921 295.876C105.471 296.864 105.252 297.941 105.278 299.027C105.278 303.836 108.681 309.67 112.857 312.049C113.783 312.616 114.83 312.958 115.913 313.047L120.479 313.238Z" fill="#263238"/>
<path d="M105.877 300.988C105.877 297.473 108.325 296.049 111.372 297.794C112.982 298.836 114.323 300.245 115.284 301.905C116.245 303.564 116.799 305.428 116.902 307.343C116.902 310.859 114.454 312.283 111.407 310.538C109.797 309.495 108.457 308.087 107.496 306.427C106.535 304.767 105.98 302.904 105.877 300.988Z" fill="#37474F"/>
</svg>
