<svg width="23" height="22" viewBox="0 0 23 22" fill="none" xmlns="http://www.w3.org/2000/svg">
<path fill-rule="evenodd" clip-rule="evenodd" d="M11.4216 13.25C11.8358 13.25 12.1716 13.5858 12.1716 14V17C12.1716 17.4142 11.8358 17.75 11.4216 17.75C11.0074 17.75 10.6716 17.4142 10.6716 17V14C10.6716 13.5858 11.0074 13.25 11.4216 13.25Z" fill="#1E2F6A"/>
<path fill-rule="evenodd" clip-rule="evenodd" d="M13.8206 1.24472C13.8208 1.24495 13.8211 1.24518 13.8214 1.24541L20.7519 6.78582C21.2656 7.1994 21.6504 7.8051 21.886 8.42265C22.1217 9.0404 22.2382 9.74897 22.1318 10.4008L22.1313 10.4036L20.8013 18.3636L20.8009 18.3658C20.4998 20.1351 18.8185 21.56 17.0216 21.56H5.82157C4.01536 21.56 2.34301 20.1456 2.04205 18.365L0.712601 10.4082C0.712457 10.4073 0.712313 10.4065 0.71217 10.4057C0.599347 9.75183 0.713476 9.04151 0.949581 8.42265C1.18584 7.80339 1.57415 7.19726 2.09365 6.78385C2.09406 6.78353 2.09447 6.7832 2.09488 6.78288L9.02237 1.23488C10.3577 0.164371 12.4777 0.166135 13.8206 1.24472ZM12.8817 2.41458C12.0847 1.77395 10.7451 1.77614 9.96076 2.40511L3.02825 7.95711C2.76837 8.16368 2.51711 8.52208 2.35105 8.95733C2.18495 9.39269 2.13407 9.82635 2.19053 10.1518L2.19132 10.1564L3.52108 18.115C3.52111 18.1152 3.52105 18.1148 3.52108 18.115C3.7004 19.1741 4.74796 20.06 5.82157 20.06H17.0216C18.0843 20.06 19.1426 19.1655 19.322 18.1153C19.3221 18.1149 19.3221 18.1145 19.3222 18.1141L20.6514 10.1591C20.6514 10.1587 20.6515 10.1582 20.6516 10.1578C20.7048 9.82981 20.6512 9.39398 20.4846 8.95733C20.3179 8.52039 20.0681 8.16141 19.8121 7.95488C19.8118 7.95464 19.8115 7.9544 19.8112 7.95416L12.8833 2.41581L12.8817 2.41458Z" fill="#1E2F6A"/>
</svg>
