<svg width="85" height="85" viewBox="0 0 85 85" fill="none" xmlns="http://www.w3.org/2000/svg">
<path d="M31.7678 17.4961L32.7414 20.4838C33.7162 23.4753 35.0596 26.3339 36.7404 28.9937L41.4447 36.4377L43.9262 20.1598L45.6326 36.4377L48.3738 32.1012V28.9479H50.367C51.3047 27.4644 52.096 25.893 52.7295 24.2564C52.8518 23.9405 52.9742 23.6248 53.0967 23.3092C53.789 21.533 54.5266 19.7749 55.17 17.9806C55.8792 16.0016 55.6686 14.0639 54.7695 12.5344C53.4286 10.257 50.4485 9.60718 50.0738 9.52707C49.9485 9.49866 49.8258 9.47283 49.6475 9.44829C47.5161 9.14212 46.4723 10.2492 44.669 10.4882C44.0158 10.5735 43.0635 10.5721 41.8458 10.1235L41.844 10.1227C41.2151 9.7792 39.4582 8.92895 37.2037 9.25194C36.8652 9.29972 33.5492 9.82161 32.1153 12.5628C31.3803 13.9722 31.1904 15.6902 31.7472 17.4303C31.7536 17.4522 31.7614 17.4729 31.7678 17.4961ZM46.5888 19.707C47.0648 19.7854 47.4486 20.1692 47.5271 20.6451C47.6566 21.4312 46.9875 22.1013 46.1998 21.9732C45.723 21.8957 45.3384 21.5111 45.2609 21.0343C45.1329 20.2467 45.8029 19.5776 46.5888 19.707ZM43.7418 16.866C44.5293 16.7381 45.1981 17.408 45.0689 18.1938C44.9906 18.6697 44.6068 19.0536 44.131 19.1322C43.3448 19.2619 42.6744 18.5926 42.8027 17.8047C42.8803 17.3279 43.265 16.9434 43.7418 16.866ZM41.5219 19.707C42.3079 19.5776 42.9779 20.2467 42.8498 21.0343C42.7723 21.5111 42.3877 21.8957 41.911 21.9732C41.1233 22.1013 40.4541 21.4312 40.5837 20.6451C40.6621 20.1692 41.046 19.7854 41.5219 19.707ZM51.8733 28.9479C52.327 27.431 53.1046 26.0306 54.1525 24.8437C55.5165 23.2986 56.8795 21.7524 58.2264 20.1934C59.8488 18.3151 62.1094 17.5362 64.2254 17.9147C65.7213 18.1834 67.119 19.3344 67.5117 19.6599C67.5169 19.6651 67.5234 19.6689 67.5285 19.6741C68.4922 20.4841 69.0697 21.6635 69.1652 22.9178C69.3047 24.7548 69.08 24.8981 69.7608 26.7686C70.1069 27.7207 73.4514 28.364 74.9292 28.9479H66.9059V36.6987H58.3077V28.9479L51.8733 28.9479ZM66.9059 53.6121H74.9292L70.0385 58.3646C69.0503 59.783 68.1577 61.5592 67.5776 63.7992C67.2017 64.303 66.5326 65.0664 65.4875 65.7007C65.1917 65.8803 63.9374 66.6205 62.5164 66.7135C60.5929 66.8375 58.6552 66.0211 57.295 64.365C56.1495 62.9715 55.0254 61.561 53.9042 60.1486C52.4633 58.3334 51.4769 56.2002 51.0263 53.9269L50.9639 53.6121H58.3077V45.5642H66.9059V53.6121ZM31.0302 59.3981C29.7694 60.8294 28.5474 62.2942 27.2505 63.6881C25.8178 65.2279 24.0003 65.9332 22.2292 65.8364C19.5901 65.693 17.6434 63.3458 17.4005 63.05C17.3178 62.9518 17.2377 62.8523 17.1318 62.7063C15.8827 60.9547 16.3865 59.5182 15.7677 57.8078C15.5442 57.1891 15.1076 56.3455 14.1504 55.4697C14.1478 55.4684 14.1465 55.4671 14.1452 55.4671C13.5509 55.0654 11.9879 53.895 11.2386 51.7468C11.1276 51.4225 10.0644 48.237 11.8406 45.7063C12.7552 44.4042 14.193 43.4457 15.9937 43.1395C16.6907 43.0211 17.0077 42.9246 18.7938 42.6731C19.4189 42.5851 20.0028 42.4988 20.5391 42.4167C22.2734 42.1512 24.0263 42.0369 25.7804 42.0742C26.8824 42.0977 27.9845 42.1211 29.0865 42.1446C32.6461 42.695 36.2057 43.2454 39.7653 43.7958L34.5339 54.2129C34.1198 55.0375 33.6029 55.9498 32.9581 56.9054C32.3061 57.8716 31.6461 58.7001 31.0302 59.3981ZM12.1797 36.7903C11.6474 35.925 11.4314 34.9927 11.3863 34.118C11.2991 32.3776 11.9934 30.6987 13.2134 29.456C14.039 28.6166 14.9621 27.4918 15.7715 26.0504C16.8082 24.2036 17.3042 22.4633 17.5523 21.154C17.7259 20.2312 18.1772 19.3776 18.8582 18.7276C19.4094 18.2016 20.1658 17.6643 21.1557 17.329C21.5717 17.1885 22.9384 16.8337 24.6146 17.1815C26.0544 17.4814 27.1689 18.3261 28.1235 19.4178C28.7184 20.0988 29.3145 20.7787 29.9114 21.4579C32.441 24.3365 34.4952 27.6001 35.9923 31.1277L39.3447 39.0272L30.1056 40.3388C26.914 40.7919 23.6736 40.7818 20.4852 40.3072C19.4036 40.1463 18.3221 39.9857 17.2406 39.8253C15.4232 39.5541 13.3552 38.7028 12.1797 36.7903ZM53.8446 65.901C54.3742 67.5118 54.5021 69.6949 53.2671 71.6287C52.2427 73.2306 50.2663 74.4681 48.2718 74.4139C45.807 74.3467 44.1768 72.2953 41.7612 72.6066C39.7873 72.8611 39.7627 73.1272 38.0692 73.8481C36.9104 74.3402 35.5967 74.3699 34.4341 73.8855C34.4277 73.8816 34.4212 73.8791 34.4147 73.8765C33.9458 73.6788 32.2807 72.9658 31.3545 71.7618C30.0446 70.0554 29.6984 67.6901 30.6207 65.3855C30.6313 65.3592 30.6418 65.3328 30.6523 65.3065C32.7622 60.0302 35.6664 55.1075 39.2935 50.7331L43.5386 45.6133L50.2535 56.9663C51.1569 58.4937 51.8968 60.1119 52.461 61.7943C52.9222 63.1636 53.3925 64.5291 53.8446 65.901Z" fill="black"/>
<mask id="mask0_739_62001" style="mask-type:luminance" maskUnits="userSpaceOnUse" x="10" y="9" width="65" height="66">
<path d="M31.7678 17.4961L32.7414 20.4838C33.7162 23.4753 35.0596 26.3339 36.7404 28.9937L41.4447 36.4377L43.9262 20.1598L45.6326 36.4377L48.3738 32.1012V28.9479H50.367C51.3047 27.4644 52.096 25.893 52.7295 24.2564C52.8518 23.9405 52.9742 23.6248 53.0967 23.3092C53.789 21.533 54.5266 19.7749 55.17 17.9806C55.8792 16.0016 55.6686 14.0639 54.7695 12.5344C53.4286 10.257 50.4485 9.60718 50.0738 9.52707C49.9485 9.49866 49.8258 9.47283 49.6475 9.44829C47.5161 9.14212 46.4723 10.2492 44.669 10.4882C44.0158 10.5735 43.0635 10.5721 41.8458 10.1235L41.844 10.1227C41.2151 9.7792 39.4582 8.92895 37.2037 9.25194C36.8652 9.29972 33.5492 9.82161 32.1153 12.5628C31.3803 13.9722 31.1904 15.6902 31.7472 17.4303C31.7536 17.4522 31.7614 17.4729 31.7678 17.4961ZM46.5888 19.707C47.0648 19.7854 47.4486 20.1692 47.5271 20.6451C47.6566 21.4312 46.9875 22.1013 46.1998 21.9732C45.723 21.8957 45.3384 21.5111 45.2609 21.0343C45.1329 20.2467 45.8029 19.5776 46.5888 19.707ZM43.7418 16.866C44.5293 16.7381 45.1981 17.408 45.0689 18.1938C44.9906 18.6697 44.6068 19.0536 44.131 19.1322C43.3448 19.2619 42.6744 18.5926 42.8027 17.8047C42.8803 17.3279 43.265 16.9434 43.7418 16.866ZM41.5219 19.707C42.3079 19.5776 42.9779 20.2467 42.8498 21.0343C42.7723 21.5111 42.3877 21.8957 41.911 21.9732C41.1233 22.1013 40.4541 21.4312 40.5837 20.6451C40.6621 20.1692 41.046 19.7854 41.5219 19.707ZM51.8733 28.9479C52.327 27.431 53.1046 26.0306 54.1525 24.8437C55.5165 23.2986 56.8795 21.7524 58.2264 20.1934C59.8488 18.3151 62.1094 17.5362 64.2254 17.9147C65.7213 18.1834 67.119 19.3344 67.5117 19.6599C67.5169 19.6651 67.5234 19.6689 67.5285 19.6741C68.4922 20.4841 69.0697 21.6635 69.1652 22.9178C69.3047 24.7548 69.08 24.8981 69.7608 26.7686C70.1069 27.7207 73.4514 28.364 74.9292 28.9479H66.9059V36.6987H58.3077V28.9479L51.8733 28.9479ZM66.9059 53.6121H74.9292L70.0385 58.3646C69.0503 59.783 68.1577 61.5592 67.5776 63.7992C67.2017 64.303 66.5326 65.0664 65.4875 65.7007C65.1917 65.8803 63.9374 66.6205 62.5164 66.7135C60.5929 66.8375 58.6552 66.0211 57.295 64.365C56.1495 62.9715 55.0254 61.561 53.9042 60.1486C52.4633 58.3334 51.4769 56.2002 51.0263 53.9269L50.9639 53.6121H58.3077V45.5642H66.9059V53.6121ZM31.0302 59.3981C29.7694 60.8294 28.5474 62.2942 27.2505 63.6881C25.8178 65.2279 24.0003 65.9332 22.2292 65.8364C19.5901 65.693 17.6434 63.3458 17.4005 63.05C17.3178 62.9518 17.2377 62.8523 17.1318 62.7063C15.8827 60.9547 16.3865 59.5182 15.7677 57.8078C15.5442 57.1891 15.1076 56.3455 14.1504 55.4697C14.1478 55.4684 14.1465 55.4671 14.1452 55.4671C13.5509 55.0654 11.9879 53.895 11.2386 51.7468C11.1276 51.4225 10.0644 48.237 11.8406 45.7063C12.7552 44.4042 14.193 43.4457 15.9937 43.1395C16.6907 43.0211 17.0077 42.9246 18.7938 42.6731C19.4189 42.5851 20.0028 42.4988 20.5391 42.4167C22.2734 42.1512 24.0263 42.0369 25.7804 42.0742C26.8824 42.0977 27.9845 42.1211 29.0865 42.1446C32.6461 42.695 36.2057 43.2454 39.7653 43.7958L34.5339 54.2129C34.1198 55.0375 33.6029 55.9498 32.9581 56.9054C32.3061 57.8716 31.6461 58.7001 31.0302 59.3981ZM12.1797 36.7903C11.6474 35.925 11.4314 34.9927 11.3863 34.118C11.2991 32.3776 11.9934 30.6987 13.2134 29.456C14.039 28.6166 14.9621 27.4918 15.7715 26.0504C16.8082 24.2036 17.3042 22.4633 17.5523 21.154C17.7259 20.2312 18.1772 19.3776 18.8582 18.7276C19.4094 18.2016 20.1658 17.6643 21.1557 17.329C21.5717 17.1885 22.9384 16.8337 24.6146 17.1815C26.0544 17.4814 27.1689 18.3261 28.1235 19.4178C28.7184 20.0988 29.3145 20.7787 29.9114 21.4579C32.441 24.3365 34.4952 27.6001 35.9923 31.1277L39.3447 39.0272L30.1056 40.3388C26.914 40.7919 23.6736 40.7818 20.4852 40.3072C19.4036 40.1463 18.3221 39.9857 17.2406 39.8253C15.4232 39.5541 13.3552 38.7028 12.1797 36.7903ZM53.8446 65.901C54.3742 67.5118 54.5021 69.6949 53.2671 71.6287C52.2427 73.2306 50.2663 74.4681 48.2718 74.4139C45.807 74.3467 44.1768 72.2953 41.7612 72.6066C39.7873 72.8611 39.7627 73.1272 38.0692 73.8481C36.9104 74.3402 35.5967 74.3699 34.4341 73.8855C34.4277 73.8816 34.4212 73.8791 34.4147 73.8765C33.9458 73.6788 32.2807 72.9658 31.3545 71.7618C30.0446 70.0554 29.6984 67.6901 30.6207 65.3855C30.6313 65.3592 30.6418 65.3328 30.6523 65.3065C32.7622 60.0302 35.6664 55.1075 39.2935 50.7331L43.5386 45.6133L50.2535 56.9663C51.1569 58.4937 51.8968 60.1119 52.461 61.7943C52.9222 63.1636 53.3925 64.5291 53.8446 65.901Z" fill="white"/>
</mask>
<g mask="url(#mask0_739_62001)">
<path d="M42.5 85C65.9721 85 85 65.9721 85 42.5C85 19.0279 65.9721 0 42.5 0C19.0279 0 0 19.0279 0 42.5C0 65.9721 19.0279 85 42.5 85Z" fill="url(#paint0_radial_739_62001)"/>
</g>
<path d="M74.9017 30.8853V51.6744H68.8432V43.6261H56.3697V51.6744H50.3111V30.8853H56.3697V38.6366H68.8432V30.8853H74.9017Z" fill="#142A6D"/>
<defs>
<radialGradient id="paint0_radial_739_62001" cx="0" cy="0" r="1" gradientUnits="userSpaceOnUse" gradientTransform="translate(42.5 42.5) scale(42.5)">
<stop stop-color="#64060A"/>
<stop offset="0.03217" stop-color="#78100A"/>
<stop offset="0.09045" stop-color="#98200B"/>
<stop offset="0.15646" stop-color="#B32D0C"/>
<stop offset="0.23101" stop-color="#C9380C"/>
<stop offset="0.31809" stop-color="#DA400D"/>
<stop offset="0.42582" stop-color="#E6460D"/>
<stop offset="0.57692" stop-color="#ED4A0D"/>
<stop offset="0.99634" stop-color="#EF4B0E"/>
</radialGradient>
</defs>
</svg>
