<svg width="192" height="78" viewBox="0 0 192 78" fill="none" xmlns="http://www.w3.org/2000/svg">
<path d="M29.0641 16.0553L29.9548 18.7969C30.8467 21.5421 32.0757 24.1653 33.6134 26.606L37.9173 33.437L40.1876 18.4996L41.7488 33.437L44.2568 29.4576V26.564H46.0803C46.9382 25.2026 47.6621 23.7607 48.2417 22.2588C48.3536 21.969 48.4655 21.6792 48.5776 21.3897C49.2111 19.7597 49.8859 18.1464 50.4744 16.4998C51.1233 14.6838 50.9306 12.9057 50.1081 11.5022C48.8813 9.41229 46.1548 8.81602 45.812 8.74251C45.6974 8.71644 45.5851 8.69274 45.422 8.67022C43.472 8.38926 42.517 9.40517 40.8672 9.62445C40.2696 9.7028 39.3983 9.70152 38.2843 9.28985L38.2827 9.28911C37.7073 8.97388 36.0999 8.19365 34.0373 8.49004C33.7276 8.53388 30.6938 9.01279 29.382 11.5282C28.7095 12.8215 28.5358 14.3981 29.0452 15.9949C29.0511 16.015 29.0582 16.034 29.0641 16.0553ZM42.6236 18.0841C43.0591 18.156 43.4103 18.5082 43.482 18.945C43.6006 19.6663 42.9883 20.2812 42.2677 20.1637C41.8315 20.0925 41.4796 19.7396 41.4087 19.302C41.2916 18.5793 41.9046 17.9654 42.6236 18.0841ZM40.0189 15.477C40.7394 15.3597 41.3513 15.9744 41.233 16.6955C41.1614 17.1323 40.8104 17.4845 40.375 17.5566C39.6557 17.6757 39.0424 17.0614 39.1597 16.3384C39.2308 15.9009 39.5827 15.5481 40.0189 15.477ZM37.988 18.0841C38.707 17.9654 39.32 18.5793 39.2029 19.302C39.132 19.7396 38.7801 20.0925 38.3439 20.1637C37.6233 20.2812 37.0111 19.6663 37.1296 18.945C37.2014 18.5082 37.5525 18.156 37.988 18.0841ZM47.4584 26.564C47.8735 25.172 48.5848 23.8869 49.5435 22.7977C50.7915 21.3799 52.0385 19.961 53.2707 18.5305C54.7551 16.8069 56.8233 16.0921 58.7592 16.4394C60.1278 16.686 61.4065 17.7421 61.7658 18.0409C61.7706 18.0456 61.7764 18.0492 61.7812 18.0539C62.6628 18.7972 63.1911 19.8795 63.2786 21.0305C63.4062 22.7161 63.2006 22.8477 63.8234 24.5642C64.1401 25.4378 67.2 26.0282 68.552 26.564H61.2115V33.6765H53.3452V26.564L47.4584 26.564ZM61.2116 49.197H68.552L64.0775 53.5581C63.1734 54.8597 62.3568 56.4897 61.8261 58.5452C61.4822 59.0075 60.87 59.7081 59.9139 60.2901C59.6432 60.4549 58.4957 61.1341 57.1956 61.2195C55.4358 61.3333 53.6631 60.5841 52.4186 59.0644C51.3706 57.7857 50.3422 56.4913 49.3164 55.1952C47.9981 53.5295 47.0957 51.572 46.6834 49.4858L46.6263 49.197H53.3452V41.8119H61.2116V49.197ZM28.3892 54.5065C27.2358 55.8199 26.1177 57.1642 24.9312 58.4432C23.6205 59.8562 21.9576 60.5035 20.3373 60.4146C17.9228 60.283 16.1417 58.1291 15.9196 57.8576C15.8439 57.7675 15.7706 57.6763 15.6737 57.5423C14.5309 55.9349 14.9918 54.6167 14.4257 53.0472C14.2212 52.4794 13.8218 51.7054 12.946 50.9017C12.9437 50.9005 12.9425 50.8993 12.9413 50.8993C12.3976 50.5306 10.9676 49.4566 10.2821 47.4853C10.1805 47.1878 9.20785 44.2645 10.8329 41.9423C11.6696 40.7474 12.985 39.8678 14.6325 39.5869C15.2702 39.4782 15.5602 39.3896 17.1943 39.1589C17.7662 39.0781 18.3004 38.9989 18.7911 38.9236C20.3777 38.68 21.9815 38.5751 23.5862 38.6093C24.5945 38.6308 25.6027 38.6524 26.6109 38.6739C29.8676 39.179 33.1242 39.684 36.3809 40.1891L31.5947 49.7483C31.2158 50.505 30.743 51.3422 30.153 52.2191C29.5566 53.1058 28.9527 53.866 28.3892 54.5065ZM11.1431 33.7605C10.6561 32.9665 10.4584 32.111 10.4172 31.3083C10.3374 29.7112 10.9727 28.1706 12.0888 27.0302C12.8442 26.26 13.6887 25.2278 14.4292 23.9051C15.3776 22.2104 15.8314 20.6134 16.0584 19.4119C16.2173 18.5651 16.6301 17.7818 17.2532 17.1853C17.7575 16.7027 18.4495 16.2096 19.3551 15.902C19.7358 15.773 20.9861 15.4474 22.5197 15.7666C23.8369 16.0418 24.8566 16.8169 25.7299 17.8187C26.2742 18.4436 26.8196 19.0675 27.3656 19.6908C29.6799 22.3323 31.5593 25.3272 32.929 28.5643L35.9961 35.8132L27.5433 37.0168C24.6234 37.4326 21.6588 37.4233 18.7417 36.9878C17.7522 36.8401 16.7627 36.6928 15.7732 36.5456C14.1106 36.2967 12.2186 35.5156 11.1431 33.7605ZM49.2619 60.4738C49.7464 61.952 49.8634 63.9554 48.7336 65.7299C47.7964 67.1999 45.9881 68.3355 44.1634 68.2857C41.9084 68.224 40.4169 66.3416 38.2069 66.6273C36.401 66.8608 36.3785 67.105 34.8291 67.7665C33.769 68.2181 32.5671 68.2454 31.5034 67.8009C31.4975 67.7973 31.4916 67.7949 31.4857 67.7926C31.0567 67.6112 29.5333 66.9568 28.6859 65.852C27.4875 64.2861 27.1707 62.1156 28.0146 60.0009C28.0242 59.9767 28.0339 59.9525 28.0435 59.9283C29.9739 55.0866 32.6308 50.5693 35.9492 46.5551L39.8331 41.857L45.9765 52.275C46.8029 53.6766 47.4799 55.1616 47.9961 56.7054C48.418 57.9619 48.8482 59.2149 49.2619 60.4738Z" fill="black"/>
<mask id="mask0_370_5349" style="mask-type:luminance" maskUnits="userSpaceOnUse" x="9" y="8" width="60" height="61">
<path d="M29.0641 16.0553L29.9548 18.7969C30.8467 21.5421 32.0757 24.1653 33.6134 26.606L37.9173 33.437L40.1876 18.4996L41.7488 33.437L44.2568 29.4576V26.564H46.0803C46.9382 25.2026 47.6621 23.7607 48.2417 22.2588C48.3536 21.969 48.4655 21.6792 48.5776 21.3897C49.2111 19.7597 49.8859 18.1464 50.4744 16.4998C51.1233 14.6838 50.9306 12.9057 50.1081 11.5022C48.8813 9.41229 46.1548 8.81602 45.812 8.74251C45.6974 8.71644 45.5851 8.69274 45.422 8.67022C43.472 8.38926 42.517 9.40517 40.8672 9.62445C40.2696 9.7028 39.3983 9.70152 38.2843 9.28985L38.2827 9.28911C37.7073 8.97388 36.0999 8.19365 34.0373 8.49004C33.7276 8.53388 30.6938 9.01279 29.382 11.5282C28.7095 12.8215 28.5358 14.3981 29.0452 15.9949C29.0511 16.015 29.0582 16.034 29.0641 16.0553ZM42.6236 18.0841C43.0591 18.156 43.4103 18.5082 43.482 18.945C43.6006 19.6663 42.9883 20.2812 42.2677 20.1637C41.8315 20.0925 41.4796 19.7396 41.4087 19.302C41.2916 18.5793 41.9046 17.9654 42.6236 18.0841ZM40.0189 15.477C40.7394 15.3597 41.3513 15.9744 41.233 16.6955C41.1614 17.1323 40.8104 17.4845 40.375 17.5566C39.6557 17.6757 39.0424 17.0614 39.1597 16.3384C39.2308 15.9009 39.5827 15.5481 40.0189 15.477ZM37.988 18.0841C38.707 17.9654 39.32 18.5793 39.2029 19.302C39.132 19.7396 38.7801 20.0925 38.3439 20.1637C37.6233 20.2812 37.0111 19.6663 37.1296 18.945C37.2014 18.5082 37.5525 18.156 37.988 18.0841ZM47.4584 26.564C47.8735 25.172 48.5848 23.8869 49.5435 22.7977C50.7915 21.3799 52.0385 19.961 53.2707 18.5305C54.7551 16.8069 56.8233 16.0921 58.7592 16.4394C60.1278 16.686 61.4065 17.7421 61.7658 18.0409C61.7706 18.0456 61.7764 18.0492 61.7812 18.0539C62.6628 18.7972 63.1911 19.8795 63.2786 21.0305C63.4062 22.7161 63.2006 22.8477 63.8234 24.5642C64.1401 25.4378 67.2 26.0282 68.552 26.564H61.2115V33.6765H53.3452V26.564L47.4584 26.564ZM61.2116 49.197H68.552L64.0775 53.5581C63.1734 54.8597 62.3568 56.4897 61.8261 58.5452C61.4822 59.0075 60.87 59.7081 59.9139 60.2901C59.6432 60.4549 58.4957 61.1341 57.1956 61.2195C55.4358 61.3333 53.6631 60.5841 52.4186 59.0644C51.3706 57.7857 50.3422 56.4913 49.3164 55.1952C47.9981 53.5295 47.0957 51.572 46.6834 49.4858L46.6263 49.197H53.3452V41.8119H61.2116V49.197ZM28.3892 54.5065C27.2358 55.8199 26.1177 57.1642 24.9312 58.4432C23.6205 59.8562 21.9576 60.5035 20.3373 60.4146C17.9228 60.283 16.1417 58.1291 15.9196 57.8576C15.8439 57.7675 15.7706 57.6763 15.6737 57.5423C14.5309 55.9349 14.9918 54.6167 14.4257 53.0472C14.2212 52.4794 13.8218 51.7054 12.946 50.9017C12.9437 50.9005 12.9425 50.8993 12.9413 50.8993C12.3976 50.5306 10.9676 49.4566 10.2821 47.4853C10.1805 47.1878 9.20785 44.2645 10.8329 41.9423C11.6696 40.7474 12.985 39.8678 14.6325 39.5869C15.2702 39.4782 15.5602 39.3896 17.1943 39.1589C17.7662 39.0781 18.3004 38.9989 18.7911 38.9236C20.3777 38.68 21.9815 38.5751 23.5862 38.6093C24.5945 38.6308 25.6027 38.6524 26.6109 38.6739C29.8676 39.179 33.1242 39.684 36.3809 40.1891L31.5947 49.7483C31.2158 50.505 30.743 51.3422 30.153 52.2191C29.5566 53.1058 28.9527 53.866 28.3892 54.5065ZM11.1431 33.7605C10.6561 32.9665 10.4584 32.111 10.4172 31.3083C10.3374 29.7112 10.9727 28.1706 12.0888 27.0302C12.8442 26.26 13.6887 25.2278 14.4292 23.9051C15.3776 22.2104 15.8314 20.6134 16.0584 19.4119C16.2173 18.5651 16.6301 17.7818 17.2532 17.1853C17.7575 16.7027 18.4495 16.2096 19.3551 15.902C19.7358 15.773 20.9861 15.4474 22.5197 15.7666C23.8369 16.0418 24.8566 16.8169 25.7299 17.8187C26.2742 18.4436 26.8196 19.0675 27.3656 19.6908C29.6799 22.3323 31.5593 25.3272 32.929 28.5643L35.9961 35.8132L27.5433 37.0168C24.6234 37.4326 21.6588 37.4233 18.7417 36.9878C17.7522 36.8401 16.7627 36.6928 15.7732 36.5456C14.1106 36.2967 12.2186 35.5156 11.1431 33.7605ZM49.2619 60.4738C49.7464 61.952 49.8634 63.9554 48.7336 65.7299C47.7964 67.1999 45.9881 68.3355 44.1634 68.2857C41.9084 68.224 40.4169 66.3416 38.2069 66.6273C36.401 66.8608 36.3785 67.105 34.8291 67.7665C33.769 68.2181 32.5671 68.2454 31.5034 67.8009C31.4975 67.7973 31.4916 67.7949 31.4857 67.7926C31.0567 67.6112 29.5333 66.9568 28.6859 65.852C27.4875 64.2861 27.1707 62.1156 28.0146 60.0009C28.0242 59.9767 28.0339 59.9525 28.0435 59.9283C29.9739 55.0866 32.6308 50.5693 35.9492 46.5551L39.8331 41.857L45.9765 52.275C46.8029 53.6766 47.4799 55.1616 47.9961 56.7054C48.418 57.9619 48.8482 59.2149 49.2619 60.4738Z" fill="white"/>
</mask>
<g mask="url(#mask0_370_5349)">
<path d="M38.8828 78C60.3572 78 77.7656 60.5391 77.7656 39C77.7656 17.4609 60.3572 0 38.8828 0C17.4084 0 0 17.4609 0 39C0 60.5391 17.4084 78 38.8828 78Z" fill="url(#paint0_radial_370_5349)"/>
</g>
<path d="M102.919 51.4573V70.5344H97.3757V63.1488H85.9638V70.5344H80.4209V51.4573H85.9638V58.5703H97.3757V51.4573H102.919Z" fill="#142A6D"/>
<path d="M116.558 67.346C118.949 67.346 120.389 66.7736 121.884 65.629L124.601 68.4905C122.454 70.3983 119.683 71.1614 116.259 71.1614C109.874 71.1614 106.152 68.0546 106.152 62.9854C106.152 57.9163 109.82 54.8096 115.852 54.8096C121.286 54.8096 125.144 57.5349 125.144 62.8764C125.144 63.476 125.117 63.8303 125.008 64.1301H111.26C111.695 66.4193 113.515 67.346 116.558 67.346ZM111.396 61.2412L120.199 61.1867C119.629 59.4153 118.188 58.5705 115.906 58.5705C113.597 58.5705 111.993 59.4153 111.396 61.2412Z" fill="#142A6D"/>
<path d="M145.224 62.0588V67.6729C145.224 68.763 145.414 69.6624 145.876 70.5344H140.442C140.143 70.0712 139.925 69.4988 139.925 68.981V68.9538C138.784 70.1529 136.692 71.0795 134.029 71.0795C130.85 71.0795 126.802 69.8259 126.802 65.9559C126.802 62.086 130.85 60.8324 134.029 60.8324C136.692 60.8324 138.784 61.7589 139.925 62.9853V62.0042C139.925 59.715 138.241 58.6249 134.953 58.6249C133.16 58.6249 131.394 58.8701 129.546 59.7968L128.323 56.3901C130.361 55.409 133.459 54.8367 136.067 54.8367C141.8 54.8367 145.224 57.3985 145.224 62.0588ZM140.034 65.7925C139.002 64.348 137.1 63.9664 135.551 63.9664C134.029 63.9664 131.991 64.348 131.991 65.9559C131.991 67.5639 134.029 67.9454 135.551 67.9454C137.1 67.9454 139.002 67.5639 140.034 66.0922V65.7925Z" fill="#142A6D"/>
<path d="M148.946 70.5344V50.3672H154.326V70.5344H148.946Z" fill="#142A6D"/>
<path d="M170.737 69.6351C169.379 70.5617 167.259 71.1068 165.439 71.1068C162.015 71.1068 159.434 69.2264 159.434 65.5744V59.2245H156.771V55.4363H159.434V51.9207H164.787V55.4363H170.574V59.2245H164.787V64.675C164.787 66.0377 165.792 66.8281 167.232 66.8281C168.129 66.8281 168.971 66.5283 169.84 66.1195L170.737 69.6351Z" fill="#142A6D"/>
<path d="M191.441 61.6499V70.5344H186.088V62.0042C186.088 60.0421 184.974 58.8974 182.937 58.8974C181.171 58.8974 179.649 59.7422 178.508 61.5955V70.5344H173.155V50.3672H178.508V57.8345C179.785 55.954 182.013 54.8912 184.703 54.8912C189.077 54.8912 191.441 57.6982 191.441 61.6499Z" fill="#142A6D"/>
<path d="M71.9056 28.2003C71.9056 26.6672 73.1883 25.6543 75.0171 25.6543C76.8185 25.6543 78.1013 26.6672 78.1013 28.2003C78.1013 29.7333 76.8185 30.7462 75.0171 30.7462C73.1883 30.7462 71.9056 29.7333 71.9056 28.2003ZM77.7464 47.4456H72.3422V32.2793H77.7464V47.4456Z" fill="#142A6D"/>
<path d="M101.137 39.8624C101.137 44.8722 97.8619 48.0204 93.1129 48.0204C90.3562 48.0204 88.2272 46.9254 86.8898 45.2281V47.4456H81.513V27.1873H86.8898V34.4967C88.2272 32.7994 90.3562 31.7317 93.1129 31.7317C97.8619 31.7317 101.137 34.8525 101.137 39.8624ZM96.0333 39.8624C96.0333 37.3438 94.4502 35.8655 91.6117 35.8655C89.783 35.8655 88.118 36.4678 86.9172 38.0282V41.6966C88.118 43.257 89.783 43.8593 91.6117 43.8593C94.4502 43.8593 96.0333 42.4084 96.0333 39.8624Z" fill="#142A6D"/>
<path d="M103.676 28.2003C103.676 26.6672 104.959 25.6543 106.788 25.6543C108.589 25.6543 109.872 26.6672 109.872 28.2003C109.872 29.7333 108.589 30.7462 106.788 30.7462C104.959 30.7462 103.676 29.7333 103.676 28.2003ZM109.517 47.4456H104.113V32.2793H109.517V47.4456Z" fill="#142A6D"/>
<path d="M130.315 42.6822C130.315 45.6662 127.476 48.0753 121.581 48.0753C117.541 48.0753 114.157 46.8434 112.028 45.2556L114.375 42.3263C116.013 43.5309 118.551 44.4069 121.745 44.4069C123.873 44.4069 125.293 44.0784 125.293 43.175C125.293 42.299 124.01 41.9704 121.199 41.8062C116.832 41.5051 112.628 40.3005 112.628 36.8511C112.628 33.7576 115.767 31.6497 121.39 31.6497C124.665 31.6497 127.667 32.5257 129.66 33.7303L127.367 36.7964C125.839 35.8656 123.792 35.2907 121.253 35.2907C119.588 35.2907 117.65 35.5371 117.65 36.4679C117.65 37.3712 119.261 37.5355 121.826 37.6724C126.63 37.9462 130.315 39.3423 130.315 42.6822Z" fill="#142A6D"/>
<path d="M141.888 48.0753C135.856 48.0753 132.089 44.8997 132.089 39.8625C132.089 34.7979 135.856 31.6497 141.888 31.6497C146.446 31.6497 149.257 33.6481 150.485 36.0025L145.872 37.864C145.081 36.331 143.634 35.7834 141.942 35.7834C139.185 35.7834 137.248 37.1796 137.248 39.8625C137.248 42.518 139.185 43.9415 141.942 43.9415C143.607 43.9415 145.135 43.3666 145.982 41.7788L150.594 43.6677C149.339 46.0769 146.473 48.0753 141.888 48.0753Z" fill="#142A6D"/>
<path d="M171.147 32.2793V47.4457H165.77V45.0366C164.487 46.9255 162.249 47.9932 159.547 47.9932C155.153 47.9932 152.778 45.1735 152.778 41.2039V32.2793H158.155V40.8481C158.155 42.8191 159.274 43.9689 161.321 43.9689C163.122 43.9689 164.624 43.1202 165.77 41.2587V32.2793H171.147Z" fill="#142A6D"/>
<path d="M192 42.6822C192 45.6662 189.161 48.0753 183.266 48.0753C179.226 48.0753 175.842 46.8434 173.713 45.2556L176.06 42.3263C177.698 43.5309 180.236 44.4069 183.43 44.4069C185.559 44.4069 186.978 44.0784 186.978 43.175C186.978 42.299 185.695 41.9704 182.884 41.8062C178.517 41.5051 174.314 40.3005 174.314 36.8511C174.314 33.7576 177.452 31.6497 183.075 31.6497C186.35 31.6497 189.352 32.5257 191.345 33.7303L189.052 36.7964C187.524 35.8656 185.477 35.2907 182.938 35.2907C181.274 35.2907 179.336 35.5371 179.336 36.4679C179.336 37.3712 180.946 37.5355 183.512 37.6724C188.315 37.9462 192 39.3423 192 42.6822Z" fill="#142A6D"/>
<path d="M68.5268 28.3418V47.4189H62.9839V40.0334H51.572V47.4189H46.0291V28.3418H51.572V35.4548H62.9839V28.3418H68.5268Z" fill="#142A6D"/>
<defs>
<radialGradient id="paint0_radial_370_5349" cx="0" cy="0" r="1" gradientUnits="userSpaceOnUse" gradientTransform="translate(38.8828 39) scale(38.8828 39)">
<stop stop-color="#64060A"/>
<stop offset="0.03217" stop-color="#78100A"/>
<stop offset="0.09045" stop-color="#98200B"/>
<stop offset="0.15646" stop-color="#B32D0C"/>
<stop offset="0.23101" stop-color="#C9380C"/>
<stop offset="0.31809" stop-color="#DA400D"/>
<stop offset="0.42582" stop-color="#E6460D"/>
<stop offset="0.57692" stop-color="#ED4A0D"/>
<stop offset="0.99634" stop-color="#EF4B0E"/>
</radialGradient>
</defs>
</svg>
