<svg width="179" height="82" viewBox="0 0 179 82" fill="none" xmlns="http://www.w3.org/2000/svg">
<g clip-path="url(#clip0_739_61999)">
<path d="M27.0962 16.8458L27.9266 19.7223C28.7581 22.6027 29.9039 25.355 31.3375 27.9159L35.35 35.0831L37.4666 19.4104L38.9221 35.0831L41.2602 30.9078V27.8718H42.9603C43.7601 26.4434 44.4349 24.9305 44.9753 23.3547C45.0796 23.0505 45.184 22.7465 45.2885 22.4427C45.879 20.7325 46.5082 19.0398 47.0569 17.3122C47.6618 15.4068 47.4822 13.5411 46.7153 12.0685C45.5716 9.87573 43.0297 9.25011 42.7102 9.17299C42.6033 9.14563 42.4986 9.12076 42.3466 9.09713C40.5286 8.80235 39.6383 9.86826 38.1001 10.0983C37.543 10.1806 36.7307 10.1792 35.6921 9.74726L35.6906 9.74649C35.1542 9.41574 33.6556 8.5971 31.7327 8.90808C31.444 8.95408 28.6156 9.45657 27.3925 12.0958C26.7656 13.4528 26.6037 15.107 27.0786 16.7824C27.0841 16.8035 27.0907 16.8234 27.0962 16.8458ZM39.7376 18.9745C40.1436 19.0499 40.471 19.4195 40.5379 19.8777C40.6484 20.6345 40.0777 21.2797 39.4058 21.1564C38.9991 21.0817 38.6711 20.7114 38.605 20.2523C38.4958 19.4941 39.0673 18.8499 39.7376 18.9745ZM37.3093 16.239C37.981 16.116 38.5515 16.7609 38.4412 17.5175C38.3744 17.9757 38.0472 18.3453 37.6412 18.421C36.9707 18.5459 36.3989 17.9014 36.5083 17.1428C36.5745 16.6838 36.9026 16.3136 37.3093 16.239ZM35.4159 18.9745C36.0862 18.8499 36.6577 19.4941 36.5485 20.2523C36.4824 20.7114 36.1544 21.0817 35.7477 21.1564C35.0759 21.2797 34.5051 20.6345 34.6156 19.8777C34.6825 19.4195 35.0099 19.0499 35.4159 18.9745ZM44.245 27.8718C44.632 26.4113 45.2952 25.0629 46.189 23.9201C47.3525 22.4325 48.515 20.9438 49.6638 19.4428C51.0477 17.6343 52.9759 16.8843 54.7807 17.2488C56.0566 17.5075 57.2488 18.6157 57.5838 18.9291C57.5882 18.9341 57.5937 18.9378 57.5981 18.9428C58.42 19.7226 58.9126 20.8582 58.9941 22.0659C59.1131 23.8345 58.9214 23.9726 59.5021 25.7735C59.7973 26.6902 62.65 27.3096 63.9104 27.8718H57.067V35.3344H49.7332V27.8718L44.245 27.8718ZM57.067 51.619H63.9104L59.7389 56.1948C58.8961 57.5605 58.1347 59.2707 57.6399 61.4274C57.3193 61.9124 56.7486 62.6475 55.8572 63.2582C55.6049 63.4311 54.535 64.1437 53.323 64.2333C51.6824 64.3527 50.0296 63.5667 48.8694 61.9721C47.8924 60.6305 46.9336 59.2724 45.9773 57.9125C44.7483 56.1648 43.9069 54.1109 43.5226 51.9221L43.4693 51.619H49.7332V43.8703H57.067V51.619ZM26.467 57.1899C25.3917 58.568 24.3494 59.9784 23.2431 61.3204C22.0211 62.803 20.4709 63.4821 18.9603 63.3888C16.7092 63.2507 15.0488 60.9908 14.8417 60.706C14.7711 60.6115 14.7028 60.5157 14.6125 60.3751C13.547 58.6886 13.9767 57.3055 13.449 55.6588C13.2583 55.063 12.8859 54.2508 12.0695 53.4076C12.0673 53.4063 12.0662 53.4051 12.065 53.4051C11.5582 53.0183 10.225 51.8914 9.58594 49.823C9.49119 49.5108 8.58439 46.4437 10.0994 44.0072C10.8795 42.7534 12.1058 41.8306 13.6418 41.5358C14.2363 41.4217 14.5066 41.3288 16.0301 41.0867C16.5633 41.002 17.0613 40.9189 17.5187 40.8398C18.998 40.5842 20.4931 40.4742 21.9893 40.5101C22.9292 40.5327 23.8692 40.5553 24.8092 40.5778C27.8453 41.1078 30.8814 41.6377 33.9176 42.1676L29.4555 52.1975C29.1022 52.9914 28.6614 53.8698 28.1114 54.7899C27.5553 55.7202 26.9924 56.5179 26.467 57.1899ZM10.3886 35.4226C9.93462 34.5895 9.7503 33.6918 9.71187 32.8497C9.63747 31.1739 10.2297 29.5575 11.2703 28.361C11.9745 27.5528 12.7618 26.4698 13.4522 25.082C14.3364 23.3039 14.7595 21.6282 14.9711 20.3676C15.1192 19.4791 15.5041 18.6573 16.085 18.0315C16.5551 17.525 17.2003 17.0077 18.0446 16.6849C18.3995 16.5496 19.5651 16.2079 20.9949 16.5428C22.223 16.8316 23.1736 17.6448 23.9878 18.696C24.4952 19.3517 25.0037 20.0063 25.5127 20.6602C27.6704 23.4318 29.4225 26.5741 30.6994 29.9706L33.5588 37.5763L25.6784 38.8392C22.9562 39.2754 20.1923 39.2657 17.4727 38.8088C16.5502 38.6538 15.6277 38.4992 14.7052 38.3448C13.1552 38.0837 11.3913 37.264 10.3886 35.4226ZM45.9264 63.451C46.3781 65.002 46.4873 67.1039 45.4339 68.9658C44.5601 70.5081 42.8744 71.6996 41.1731 71.6474C39.0708 71.5827 37.6803 69.6076 35.6199 69.9074C33.9363 70.1524 33.9154 70.4086 32.4709 71.1026C31.4825 71.5765 30.362 71.6051 29.3704 71.1387C29.3649 71.135 29.3593 71.1325 29.3538 71.13C28.9539 70.9397 27.5336 70.2531 26.7436 69.0939C25.6263 67.4509 25.331 65.1736 26.1178 62.9547C26.1267 62.9293 26.1357 62.904 26.1447 62.8786C27.9444 57.7985 30.4214 53.0588 33.5151 48.8471L37.136 43.9176L42.8635 54.8485C43.634 56.3191 44.2651 57.8772 44.7463 59.497C45.1397 60.8154 45.5408 62.1301 45.9264 63.451Z" fill="black"/>
<mask id="mask0_739_61999" style="mask-type:luminance" maskUnits="userSpaceOnUse" x="9" y="8" width="55" height="64">
<path d="M27.0962 16.8458L27.9266 19.7223C28.7581 22.6027 29.9039 25.355 31.3375 27.9159L35.35 35.0831L37.4666 19.4104L38.9221 35.0831L41.2602 30.9078V27.8718H42.9603C43.7601 26.4434 44.4349 24.9305 44.9753 23.3547C45.0796 23.0505 45.184 22.7465 45.2885 22.4427C45.879 20.7325 46.5082 19.0398 47.0569 17.3122C47.6618 15.4068 47.4822 13.5411 46.7153 12.0685C45.5716 9.87573 43.0297 9.25011 42.7102 9.17299C42.6033 9.14563 42.4986 9.12076 42.3466 9.09713C40.5286 8.80235 39.6383 9.86826 38.1001 10.0983C37.543 10.1806 36.7307 10.1792 35.6921 9.74726L35.6906 9.74649C35.1542 9.41574 33.6556 8.5971 31.7327 8.90808C31.444 8.95408 28.6156 9.45657 27.3925 12.0958C26.7656 13.4528 26.6037 15.107 27.0786 16.7824C27.0841 16.8035 27.0907 16.8234 27.0962 16.8458ZM39.7376 18.9745C40.1436 19.0499 40.471 19.4195 40.5379 19.8777C40.6484 20.6345 40.0777 21.2797 39.4058 21.1564C38.9991 21.0817 38.6711 20.7114 38.605 20.2523C38.4958 19.4941 39.0673 18.8499 39.7376 18.9745ZM37.3093 16.239C37.981 16.116 38.5515 16.7609 38.4412 17.5175C38.3744 17.9757 38.0472 18.3453 37.6412 18.421C36.9707 18.5459 36.3989 17.9014 36.5083 17.1428C36.5745 16.6838 36.9026 16.3136 37.3093 16.239ZM35.4159 18.9745C36.0862 18.8499 36.6577 19.4941 36.5485 20.2523C36.4824 20.7114 36.1544 21.0817 35.7477 21.1564C35.0759 21.2797 34.5051 20.6345 34.6156 19.8777C34.6825 19.4195 35.0099 19.0499 35.4159 18.9745ZM44.245 27.8718C44.632 26.4113 45.2952 25.0629 46.189 23.9201C47.3525 22.4325 48.515 20.9438 49.6638 19.4428C51.0477 17.6343 52.9759 16.8843 54.7807 17.2488C56.0566 17.5075 57.2488 18.6157 57.5838 18.9291C57.5882 18.9341 57.5937 18.9378 57.5981 18.9428C58.42 19.7226 58.9126 20.8582 58.9941 22.0659C59.1131 23.8345 58.9214 23.9726 59.5021 25.7735C59.7973 26.6902 62.65 27.3096 63.9104 27.8718H57.067V35.3344H49.7332V27.8718L44.245 27.8718ZM57.067 51.619H63.9104L59.7389 56.1948C58.8961 57.5605 58.1347 59.2707 57.6399 61.4274C57.3193 61.9124 56.7486 62.6475 55.8572 63.2582C55.6049 63.4311 54.535 64.1437 53.323 64.2333C51.6824 64.3527 50.0296 63.5667 48.8694 61.9721C47.8924 60.6305 46.9336 59.2724 45.9773 57.9125C44.7483 56.1648 43.9069 54.1109 43.5226 51.9221L43.4693 51.619H49.7332V43.8703H57.067V51.619ZM26.467 57.1899C25.3917 58.568 24.3494 59.9784 23.2431 61.3204C22.0211 62.803 20.4709 63.4821 18.9603 63.3888C16.7092 63.2507 15.0488 60.9908 14.8417 60.706C14.7711 60.6115 14.7028 60.5157 14.6125 60.3751C13.547 58.6886 13.9767 57.3055 13.449 55.6588C13.2583 55.063 12.8859 54.2508 12.0695 53.4076C12.0673 53.4063 12.0662 53.4051 12.065 53.4051C11.5582 53.0183 10.225 51.8914 9.58594 49.823C9.49119 49.5108 8.58439 46.4437 10.0994 44.0072C10.8795 42.7534 12.1058 41.8306 13.6418 41.5358C14.2363 41.4217 14.5066 41.3288 16.0301 41.0867C16.5633 41.002 17.0613 40.9189 17.5187 40.8398C18.998 40.5842 20.4931 40.4742 21.9893 40.5101C22.9292 40.5327 23.8692 40.5553 24.8092 40.5778C27.8453 41.1078 30.8814 41.6377 33.9176 42.1676L29.4555 52.1975C29.1022 52.9914 28.6614 53.8698 28.1114 54.7899C27.5553 55.7202 26.9924 56.5179 26.467 57.1899ZM10.3886 35.4226C9.93462 34.5895 9.7503 33.6918 9.71187 32.8497C9.63747 31.1739 10.2297 29.5575 11.2703 28.361C11.9745 27.5528 12.7618 26.4698 13.4522 25.082C14.3364 23.3039 14.7595 21.6282 14.9711 20.3676C15.1192 19.4791 15.5041 18.6573 16.085 18.0315C16.5551 17.525 17.2003 17.0077 18.0446 16.6849C18.3995 16.5496 19.5651 16.2079 20.9949 16.5428C22.223 16.8316 23.1736 17.6448 23.9878 18.696C24.4952 19.3517 25.0037 20.0063 25.5127 20.6602C27.6704 23.4318 29.4225 26.5741 30.6994 29.9706L33.5588 37.5763L25.6784 38.8392C22.9562 39.2754 20.1923 39.2657 17.4727 38.8088C16.5502 38.6538 15.6277 38.4992 14.7052 38.3448C13.1552 38.0837 11.3913 37.264 10.3886 35.4226ZM45.9264 63.451C46.3781 65.002 46.4873 67.1039 45.4339 68.9658C44.5601 70.5081 42.8744 71.6996 41.1731 71.6474C39.0708 71.5827 37.6803 69.6076 35.6199 69.9074C33.9363 70.1524 33.9154 70.4086 32.4709 71.1026C31.4825 71.5765 30.362 71.6051 29.3704 71.1387C29.3649 71.135 29.3593 71.1325 29.3538 71.13C28.9539 70.9397 27.5336 70.2531 26.7436 69.0939C25.6263 67.4509 25.331 65.1736 26.1178 62.9547C26.1267 62.9293 26.1357 62.904 26.1447 62.8786C27.9444 57.7985 30.4214 53.0588 33.5151 48.8471L37.136 43.9176L42.8635 54.8485C43.634 56.3191 44.2651 57.8772 44.7463 59.497C45.1397 60.8154 45.5408 62.1301 45.9264 63.451Z" fill="white"/>
</mask>
<g mask="url(#mask0_739_61999)">
<path d="M36.2501 81.8398C56.2705 81.8398 72.5003 63.5194 72.5003 40.9199C72.5003 18.3205 56.2705 0 36.2501 0C16.2297 0 0 18.3205 0 40.9199C0 63.5194 16.2297 81.8398 36.2501 81.8398Z" fill="url(#paint0_radial_739_61999)"/>
</g>
<path d="M95.9502 53.9905V74.0067H90.7826V66.2576H80.1434V74.0067H74.9757V53.9905H80.1434V61.4537H90.7826V53.9905H95.9502Z" fill="white"/>
<path d="M108.666 70.6611C110.895 70.6611 112.238 70.0606 113.631 68.8596L116.164 71.862C114.163 73.8637 111.579 74.6644 108.388 74.6644C102.435 74.6644 98.9644 71.4046 98.9644 66.0859C98.9644 60.7672 102.384 57.5076 108.008 57.5076C113.074 57.5076 116.671 60.367 116.671 65.9715C116.671 66.6007 116.646 66.9723 116.544 67.2869H103.727C104.132 69.6888 105.829 70.6611 108.666 70.6611ZM103.853 64.2559L112.061 64.1986C111.529 62.34 110.186 61.4536 108.058 61.4536C105.905 61.4536 104.411 62.34 103.853 64.2559Z" fill="white"/>
<path d="M135.391 65.1138V71.0043C135.391 72.1481 135.568 73.0917 135.999 74.0067H130.933C130.654 73.5206 130.451 72.9201 130.451 72.3768V72.3483C129.387 73.6063 127.437 74.5785 124.954 74.5785C121.991 74.5785 118.216 73.2632 118.216 69.2028C118.216 65.1423 121.991 63.827 124.954 63.827C127.437 63.827 129.387 64.7992 130.451 66.0859V65.0565C130.451 62.6546 128.881 61.5108 125.816 61.5108C124.144 61.5108 122.497 61.7681 120.775 62.7404L119.635 59.166C121.535 58.1366 124.422 57.5361 126.854 57.5361C132.199 57.5361 135.391 60.2241 135.391 65.1138ZM130.553 69.0313C129.59 67.5157 127.817 67.1153 126.373 67.1153C124.954 67.1153 123.054 67.5157 123.054 69.2028C123.054 70.8899 124.954 71.2902 126.373 71.2902C127.817 71.2902 129.59 70.8899 130.553 69.3457V69.0313Z" fill="white"/>
<path d="M138.861 74.0067V52.8467H143.877V74.0067H138.861Z" fill="white"/>
<path d="M159.177 73.0631C157.91 74.0353 155.934 74.6072 154.237 74.6072C151.045 74.6072 148.639 72.6342 148.639 68.8025V62.1399H146.156V58.1652H148.639V54.4766H153.629V58.1652H159.025V62.1399H153.629V67.8588C153.629 69.2886 154.566 70.1179 155.909 70.1179C156.745 70.1179 157.53 69.8033 158.341 69.3744L159.177 73.0631Z" fill="white"/>
<path d="M178.479 64.6848V74.0067H173.489V65.0566C173.489 62.9978 172.45 61.7968 170.55 61.7968C168.904 61.7968 167.485 62.6832 166.421 64.6277V74.0067H161.431V52.8467H166.421V60.6816C167.612 58.7085 169.689 57.5934 172.197 57.5934C176.275 57.5934 178.479 60.5386 178.479 64.6848Z" fill="white"/>
<path d="M67.037 29.5885C67.037 27.98 68.2329 26.9172 69.9378 26.9172C71.6172 26.9172 72.8132 27.98 72.8132 29.5885C72.8132 31.1971 71.6172 32.2598 69.9378 32.2598C68.2329 32.2598 67.037 31.1971 67.037 29.5885ZM72.4823 49.7813H67.444V33.8684H72.4823V49.7813Z" fill="white"/>
<path d="M94.2894 41.8248C94.2894 47.0812 91.2359 50.3844 86.8083 50.3844C84.2383 50.3844 82.2535 49.2355 81.0066 47.4546V49.7812H75.9939V28.5256H81.0066V36.1949C82.2535 34.414 84.2383 33.2938 86.8083 33.2938C91.2359 33.2938 94.2894 36.5683 94.2894 41.8248ZM89.5311 41.8248C89.5311 39.1822 88.0551 37.6311 85.4088 37.6311C83.704 37.6311 82.1517 38.263 81.0321 39.9003V43.7493C82.1517 45.3865 83.704 46.0184 85.4088 46.0184C88.0551 46.0184 89.5311 44.4961 89.5311 41.8248Z" fill="white"/>
<path d="M96.6564 29.5885C96.6564 27.98 97.8522 26.9172 99.5572 26.9172C101.237 26.9172 102.433 27.98 102.433 29.5885C102.433 31.1971 101.237 32.2598 99.5572 32.2598C97.8522 32.2598 96.6564 31.1971 96.6564 29.5885ZM102.102 49.7813H97.0634V33.8684H102.102V49.7813Z" fill="white"/>
<path d="M121.491 44.7834C121.491 47.9143 118.845 50.442 113.349 50.442C109.583 50.442 106.427 49.1495 104.443 47.4835L106.631 44.41C108.158 45.6739 110.524 46.593 113.501 46.593C115.486 46.593 116.809 46.2484 116.809 45.3005C116.809 44.3813 115.613 44.0366 112.992 43.8643C108.921 43.5483 105.002 42.2845 105.002 38.6653C105.002 35.4195 107.929 33.2078 113.171 33.2078C116.224 33.2078 119.023 34.1269 120.881 35.3908L118.743 38.6078C117.318 37.6312 115.41 37.028 113.043 37.028C111.491 37.028 109.684 37.2866 109.684 38.2632C109.684 39.211 111.186 39.3834 113.578 39.527C118.056 39.8142 121.491 41.2791 121.491 44.7834Z" fill="white"/>
<path d="M132.281 50.442C126.657 50.442 123.146 47.1101 123.146 41.8249C123.146 36.511 126.657 33.2078 132.281 33.2078C136.53 33.2078 139.151 35.3046 140.296 37.7748L135.996 39.7281C135.258 38.1195 133.909 37.545 132.331 37.545C129.761 37.545 127.955 39.01 127.955 41.8249C127.955 44.6111 129.761 46.1047 132.331 46.1047C133.884 46.1047 135.309 45.5016 136.097 43.8355L140.398 45.8175C139.227 48.3452 136.555 50.442 132.281 50.442Z" fill="white"/>
<path d="M159.559 33.8684V49.7814H154.546V47.2537C153.35 49.2357 151.264 50.3558 148.744 50.3558C144.648 50.3558 142.434 47.3973 142.434 43.2324V33.8684H147.447V42.859C147.447 44.9271 148.49 46.1335 150.398 46.1335C152.078 46.1335 153.477 45.243 154.546 43.2898V33.8684H159.559Z" fill="white"/>
<path d="M179 44.7834C179 47.9143 176.354 50.442 170.857 50.442C167.091 50.442 163.936 49.1495 161.951 47.4835L164.14 44.41C165.666 45.6739 168.033 46.593 171.01 46.593C172.995 46.593 174.318 46.2484 174.318 45.3005C174.318 44.3813 173.122 44.0366 170.501 43.8643C166.43 43.5483 162.511 42.2845 162.511 38.6653C162.511 35.4195 165.437 33.2078 170.679 33.2078C173.733 33.2078 176.532 34.1269 178.389 35.3908L176.252 38.6078C174.827 37.6312 172.918 37.028 170.552 37.028C169 37.028 167.193 37.2866 167.193 38.2632C167.193 39.211 168.694 39.3834 171.086 39.527C175.565 39.8142 179 41.2791 179 44.7834Z" fill="white"/>
<path d="M63.887 29.7371V49.7533H58.7194V42.0042H48.0802V49.7533H42.9126V29.7371H48.0802V37.2003H58.7194V29.7371H63.887Z" fill="white"/>
</g>
<defs>
<radialGradient id="paint0_radial_739_61999" cx="0" cy="0" r="1" gradientUnits="userSpaceOnUse" gradientTransform="translate(36.2501 40.9199) scale(36.2501 40.9199)">
<stop stop-color="#64060A"/>
<stop offset="0.03217" stop-color="#78100A"/>
<stop offset="0.09045" stop-color="#98200B"/>
<stop offset="0.15646" stop-color="#B32D0C"/>
<stop offset="0.23101" stop-color="#C9380C"/>
<stop offset="0.31809" stop-color="#DA400D"/>
<stop offset="0.42582" stop-color="#E6460D"/>
<stop offset="0.57692" stop-color="#ED4A0D"/>
<stop offset="0.99634" stop-color="#EF4B0E"/>
</radialGradient>
<clipPath id="clip0_739_61999">
<rect width="179" height="81.8398" fill="white"/>
</clipPath>
</defs>
</svg>
