<svg width="24" height="25" viewBox="0 0 24 25" fill="none" xmlns="http://www.w3.org/2000/svg">
<g clip-path="url(#clip0_9733_34299)">
<g clip-path="url(#clip1_9733_34299)">
<path fill-rule="evenodd" clip-rule="evenodd" d="M3 0.933594C2.44772 0.933594 2 1.38131 2 1.93359V23.9336C2 24.4859 2.44772 24.9336 3 24.9336H21C21.5523 24.9336 22 24.4859 22 23.9336V4.93359L18 0.933594H3Z" fill="#F0F2F5"/>
<path fill-rule="evenodd" clip-rule="evenodd" d="M18 0.933594V4.93359H22L18 0.933594Z" fill="#D0D5DD"/>
</g>
<rect x="1" y="10.9336" width="22" height="10" rx="1" fill="#CC400C"/>
<path d="M4.75746 18.9336V13.1154H6.93928C7.38625 13.1154 7.76125 13.1987 8.06428 13.3654C8.3692 13.5321 8.59931 13.7612 8.75462 14.0529C8.91181 14.3427 8.99041 14.6722 8.99041 15.0415C8.99041 15.4147 8.91181 15.7461 8.75462 16.0359C8.59742 16.3256 8.36541 16.5539 8.05859 16.7205C7.75178 16.8853 7.37393 16.9677 6.92507 16.9677H5.47905V16.1012H6.78303C7.04439 16.1012 7.2584 16.0558 7.42507 15.9648C7.59174 15.8739 7.71484 15.7489 7.79439 15.5898C7.87583 15.4308 7.91655 15.248 7.91655 15.0415C7.91655 14.8351 7.87583 14.6533 7.79439 14.4961C7.71484 14.3389 7.59079 14.2167 7.42223 14.1296C7.25556 14.0406 7.0406 13.9961 6.77734 13.9961H5.81143V18.9336H4.75746ZM11.8775 18.9336H9.90589V13.1154H11.9173C12.4949 13.1154 12.9911 13.2319 13.4059 13.4648C13.8226 13.6959 14.1426 14.0283 14.3661 14.462C14.5896 14.8957 14.7013 15.4147 14.7013 16.0188C14.7013 16.6249 14.5887 17.1457 14.3633 17.5813C14.1398 18.0169 13.8169 18.3512 13.3945 18.5842C12.9741 18.8171 12.4684 18.9336 11.8775 18.9336ZM10.9599 18.0217H11.8263C12.2317 18.0217 12.5697 17.9478 12.8406 17.8001C13.1114 17.6504 13.315 17.4279 13.4513 17.1325C13.5877 16.8351 13.6559 16.4639 13.6559 16.0188C13.6559 15.5737 13.5877 15.2044 13.4513 14.9109C13.315 14.6154 13.1133 14.3948 12.8462 14.2489C12.5811 14.1012 12.2515 14.0273 11.8576 14.0273H10.9599V18.0217ZM15.7028 18.9336V13.1154H19.43V13.9989H16.7567V15.5785H19.1744V16.462H16.7567V18.9336H15.7028Z" fill="white"/>
</g>
<defs>
<clipPath id="clip0_9733_34299">
<rect width="24" height="24" fill="white" transform="translate(0 0.933594)"/>
</clipPath>
<clipPath id="clip1_9733_34299">
<rect width="20" height="24" fill="white" transform="translate(2 0.933594)"/>
</clipPath>
</defs>
</svg>
