<svg width="24" height="25" viewBox="0 0 24 25" fill="none" xmlns="http://www.w3.org/2000/svg">
<g clip-path="url(#clip0_9733_34313)">
<g clip-path="url(#clip1_9733_34313)">
<path fill-rule="evenodd" clip-rule="evenodd" d="M3 0.558594C2.44772 0.558594 2 1.00631 2 1.55859V23.5586C2 24.1109 2.44772 24.5586 3 24.5586H21C21.5523 24.5586 22 24.1109 22 23.5586V4.55859L18 0.558594H3Z" fill="#F0F2F5"/>
<path fill-rule="evenodd" clip-rule="evenodd" d="M18 0.558594V4.55859H22L18 0.558594Z" fill="#D0D5DD"/>
</g>
<rect x="1" y="10.5586" width="22" height="10" rx="1" fill="#1671D9"/>
<path d="M4.01527 18.5586V12.7404H6.19709C6.64406 12.7404 7.01906 12.8237 7.32209 12.9904C7.62701 13.1571 7.85713 13.3862 8.01243 13.6779C8.16963 13.9677 8.24822 14.2972 8.24822 14.6665C8.24822 15.0397 8.16963 15.3711 8.01243 15.6609C7.85523 15.9506 7.62322 16.1789 7.31641 16.3455C7.00959 16.5103 6.63175 16.5927 6.18288 16.5927H4.73686V15.7262H6.04084C6.3022 15.7262 6.51622 15.6808 6.68288 15.5898C6.84955 15.4989 6.97266 15.3739 7.0522 15.2148C7.13364 15.0558 7.17436 14.873 7.17436 14.6665C7.17436 14.4601 7.13364 14.2783 7.0522 14.1211C6.97266 13.9639 6.8486 13.8417 6.68004 13.7546C6.51338 13.6656 6.29841 13.6211 6.03516 13.6211H5.06925V18.5586H4.01527ZM13.945 12.7404V18.5586H13.0075L10.266 14.5955H10.2177V18.5586H9.16371V12.7404H10.1069L12.8455 16.7063H12.8967V12.7404H13.945ZM18.9911 14.5984C18.9438 14.445 18.8784 14.3076 18.7951 14.1864C18.7137 14.0633 18.6152 13.9582 18.4996 13.8711C18.386 13.784 18.2553 13.7186 18.1076 13.6751C17.9599 13.6296 17.7989 13.6069 17.6246 13.6069C17.3121 13.6069 17.0337 13.6855 16.7894 13.8427C16.5451 13.9999 16.3529 14.2309 16.2127 14.5359C16.0745 14.8389 16.0053 15.2082 16.0053 15.6438C16.0053 16.0832 16.0745 16.4554 16.2127 16.7603C16.351 17.0652 16.5432 17.2972 16.7894 17.4563C17.0356 17.6135 17.3216 17.6921 17.6474 17.6921C17.9428 17.6921 18.1985 17.6353 18.4144 17.5217C18.6322 17.408 18.7998 17.247 18.9173 17.0387C19.0347 16.8285 19.0934 16.5823 19.0934 16.3001L19.332 16.337H17.7525V15.5131H20.1133V16.212C20.1133 16.7101 20.0072 17.141 19.7951 17.5046C19.583 17.8683 19.2913 18.1486 18.9201 18.3455C18.5489 18.5406 18.1228 18.6381 17.6417 18.6381C17.1057 18.6381 16.6351 18.5179 16.2298 18.2773C15.8263 18.0349 15.511 17.6912 15.2837 17.2461C15.0584 16.7991 14.9457 16.2688 14.9457 15.6552C14.9457 15.1855 15.012 14.766 15.1445 14.3967C15.279 14.0273 15.4665 13.7139 15.707 13.4563C15.9476 13.1969 16.2298 12.9999 16.5536 12.8654C16.8775 12.729 17.2298 12.6609 17.6104 12.6609C17.9324 12.6609 18.2326 12.7082 18.511 12.8029C18.7894 12.8957 19.0366 13.0283 19.2525 13.2006C19.4703 13.373 19.6493 13.5775 19.7894 13.8143C19.9296 14.051 20.0214 14.3124 20.065 14.5984H18.9911Z" fill="white"/>
</g>
<defs>
<clipPath id="clip0_9733_34313">
<rect width="24" height="24" fill="white" transform="translate(0 0.558594)"/>
</clipPath>
<clipPath id="clip1_9733_34313">
<rect width="20" height="24" fill="white" transform="translate(2 0.558594)"/>
</clipPath>
</defs>
</svg>
