<svg width="20" height="20" viewBox="0 0 20 20" fill="none" xmlns="http://www.w3.org/2000/svg">
<path d="M13.4501 2.46719L5.9251 4.96719C0.866764 6.65886 0.866764 9.41719 5.9251 11.1005L8.15843 11.8422L8.9001 14.0755C10.5834 19.1339 13.3501 19.1339 15.0334 14.0755L17.5418 6.55886C18.6584 3.18386 16.8251 1.34219 13.4501 2.46719ZM13.7168 6.95052L10.5501 10.1339C10.4251 10.2589 10.2668 10.3172 10.1084 10.3172C9.9501 10.3172 9.79177 10.2589 9.66677 10.1339C9.4251 9.89219 9.4251 9.49219 9.66677 9.25052L12.8334 6.06719C13.0751 5.82552 13.4751 5.82552 13.7168 6.06719C13.9584 6.30886 13.9584 6.70886 13.7168 6.95052Z" fill="white"/>
</svg>
