<svg width="58" height="57" viewBox="0 0 58 57" fill="none" xmlns="http://www.w3.org/2000/svg">
<ellipse cx="29" cy="28.5" rx="29" ry="28.5" fill="#E8EFFA"/>
<path d="M25.4883 40.5939L29.9477 36.2695M29.9477 36.2695L34.4072 40.5939M29.9477 36.2695V45.9993" stroke="#5C7195" stroke-width="2.30186" stroke-linecap="round" stroke-linejoin="round"/>
<path d="M36.8378 42.7568C38.4798 42.7568 39.8108 41.4257 39.8108 39.7838V25.5346C39.8108 25.1404 39.6542 24.7623 39.3754 24.4835L31.3273 16.4354C31.0485 16.1566 30.6704 16 30.2762 16H21.973C20.331 16 19 17.331 19 18.973V39.7838C19 41.4257 20.331 42.7568 21.973 42.7568M24.9459 31H34M25.0811 26.1351H34" stroke="#5C7195" stroke-width="3" stroke-linecap="round" stroke-linejoin="round"/>
</svg>
